<svg xmlns="http://www.w3.org/2000/svg" fill="none" viewBox="0 0 289 30"><g fill-rule="evenodd" clip-path="url(#a)" clip-rule="evenodd"><path fill="url(#b)" d="M47.269 26.984s-5.124-.272-7.79-2.893c-1.343-1.318-1.934-3.772-1.934-3.772h5.286s1.08.918 2.43 1.24c1.434.34 3.183.34 3.183.34L47.27 26.99z"/><path fill="url(#c)" d="M23.345 25.81 19.037 3.912c-.208-1.135.062-2.999 2.446-3.127 1.316-.072 3.195.468 3.825 3.534v.022l4.38 22.25c-1.304.745-2.451 1.018-3.464.884-1.052-.14-2.002-.718-2.874-1.658z"/><path fill="url(#d)" d="m37.258 18.867-.073-.362-.169-.862-.748-3.8h12.176v5.024z"/><path fill="url(#e)" d="M21.849 25.783c-1.305.745-2.452 1.018-3.465.884-1.051-.139-2.002-.718-2.873-1.658l-1.457-7.405-.169-.863-1.012-5.118-.264-1.352-.118-.59s-.619-3.756-.996-4.963c-.275-.89-.82-1.441-1.383-1.658H10.1l-.006-.006h-.011l-.006-.005h-.011l-.006-.006h-.011l-.011-.005h-.107l-.006-.006H9.6c.202-.695.529-1.24.917-1.658C11.327.39 12.463.05 13.284.006c.765-.04 1.884.11 2.778.856.63.529 1.164 1.363 1.406 2.665z"/><path fill="url(#f)" d="M31.072 26.461c.242 1.308.776 2.143 1.406 2.671 1.929 1.608 5.579 1.013 6.484-2.086-.928 0-1.687-.935-1.923-1.77-.894-3.16-2.553-12.885-2.553-12.885l-1.457-7.406c-.872-.94-1.822-1.519-2.874-1.658-1.018-.133-2.165.14-3.464.885z"/><path fill="url(#g)" d="M12.277 16.152H0v-5.019h11.287l.068.362.174.862.534 2.715z"/><path fill="url(#h)" d="M1.175 3.016s5.124.272 7.79 2.893c1.344 1.318 1.934 3.772 1.934 3.772H5.62s-1.08-.918-2.43-1.24C1.755 8.1.006 8.1.006 8.1z"/><path fill="#fff" d="M81.192 25.004V3.884h-5.061l-5.613 8.93-5.613-8.93h-5.061v21.12h4.634V11.306l5.95 8.93h.124l6.006-9.025v13.793zm25.926 0-9.15-21.27h-4.33l-9.15 21.275h4.791l1.952-4.74h9.026l1.951 4.74h4.91zm-8.543-8.841h-5.674l2.834-6.85 2.835 6.85zm27.271 2.593v-.062q.001-1.386-.445-2.381a4.85 4.85 0 0 0-1.316-1.736q-.868-.743-2.142-1.268a22.5 22.5 0 0 0-2.891-.952 64 64 0 0 1-2.278-.634q-.9-.274-1.423-.573c-.343-.2-.584-.429-.714-.679a1.9 1.9 0 0 1-.197-.89V9.52q.001-.786.687-1.313.683-.527 2.058-.529c1.375-.002 1.828.184 2.744.556q1.374.558 2.807 1.525l2.44-3.5a12.6 12.6 0 0 0-3.616-1.992q-1.967-.693-4.313-.695-1.647 0-3.015.45-1.368.453-2.356 1.297a5.9 5.9 0 0 0-1.53 2.009c-.36.773-.545 1.646-.545 2.609v.061q.001 1.568.5 2.626c.338.707.816 1.291 1.423 1.764s1.355.868 2.233 1.19q1.316.484 2.935.874 1.344.334 2.188.634.836.299 1.316.607.473.3.641.65c.113.235.169.496.169.802v.061q0 .936-.81 1.463c-.54.351-1.293.53-2.272.53-1.22 0-2.345-.235-3.369-.696a13.8 13.8 0 0 1-3.003-1.87l-2.772 3.288a12.7 12.7 0 0 0 4.268 2.549 14.3 14.3 0 0 0 4.792.829q1.738.001 3.166-.44 1.425-.434 2.463-1.269a5.74 5.74 0 0 0 1.609-2.053c.382-.812.573-1.747.573-2.793zm20.251-10.594V3.884h-17.693v4.284h6.496v16.836h4.696V8.168h6.496zm19.824 16.836v-4.134h-11.59V16.43h10.066v-4.134h-10.066V8.012h11.439V3.884h-16.074v21.12h16.225zm22.665 0-5.214-7.544q2.042-.751 3.307-2.37c.844-1.074 1.266-2.47 1.266-4.179v-.061q-.001-3.286-2.121-5.13-2.118-1.844-5.933-1.842h-9.757v21.132h4.696v-6.76h3.689l4.578 6.76h5.489zm-5.399-13.848q0 1.359-.928 2.175c-.619.546-1.507.813-2.672.813h-4.757v-6.06h4.667q1.738-.001 2.717.757.978.753.978 2.265v.061zm25.898.089v-.061q.001-1.628-.563-2.971a6.6 6.6 0 0 0-1.614-2.31q-1.055-.966-2.564-1.49-1.51-.528-3.431-.53h-8.722v21.127h4.695v-6.338h3.572q1.798 0 3.368-.467t2.745-1.402a6.54 6.54 0 0 0 1.844-2.326c.45-.923.67-2.002.67-3.227zm-4.758.089q0 1.36-.979 2.276c-.652.612-1.563.918-2.744.918h-3.723V8.079h3.627q1.77.001 2.79.812c.68.545 1.023 1.335 1.023 2.381v.061zm29.981 3.11v-.061q-.001-2.262-.838-4.24a10.3 10.3 0 0 0-2.351-3.438 11.3 11.3 0 0 0-3.582-2.326q-2.075-.86-4.544-.862c-1.648 0-3.167.284-4.561.862q-2.091.86-3.6 2.354a10.9 10.9 0 0 0-2.362 3.471 10.6 10.6 0 0 0-.855 4.24v.061c0 1.508.282 2.921.838 4.24a10.3 10.3 0 0 0 2.351 3.438 11.3 11.3 0 0 0 3.583 2.326q2.073.86 4.544.862 2.47-.001 4.561-.862 2.09-.86 3.599-2.354a10.9 10.9 0 0 0 2.362-3.471q.854-1.978.855-4.24m-4.91.061a6.8 6.8 0 0 1-.472 2.548 6.7 6.7 0 0 1-1.311 2.098 6 6 0 0 1-2.03 1.419c-.793.345-1.659.512-2.592.512-.934 0-1.828-.178-2.61-.529a6.4 6.4 0 0 1-2.041-1.435 6.3 6.3 0 0 1-1.345-2.115 7 7 0 0 1-.472-2.565v-.06c0-.908.158-1.753.472-2.549a6.7 6.7 0 0 1 1.311-2.097 6 6 0 0 1 2.013-1.42q1.174-.51 2.61-.511a6.3 6.3 0 0 1 2.592.528 6.4 6.4 0 0 1 3.403 3.55c.315.807.472 1.658.472 2.565zM243.396 25V3.883H238.7v21.12h4.696zm24.312 0V3.883h-4.634v13.002L253.069 3.878h-4.33v21.126h4.634V11.578l10.342 13.431h3.993zM289 8.161V3.884h-17.693v4.284h6.496v16.836h4.696V8.168h6.495z"/></g><defs><linearGradient id="b" x1="24.222" x2="36.379" y1="0" y2="27.916" gradientUnits="userSpaceOnUse"><stop stop-color="#EDE497"/><stop offset=".443" stop-color="#2AD9C2"/><stop offset="1" stop-color="#D891CE"/></linearGradient><linearGradient id="c" x1="24.222" x2="36.379" y1="0" y2="27.916" gradientUnits="userSpaceOnUse"><stop stop-color="#EDE497"/><stop offset=".443" stop-color="#2AD9C2"/><stop offset="1" stop-color="#D891CE"/></linearGradient><linearGradient id="d" x1="24.222" x2="36.379" y1="0" y2="27.916" gradientUnits="userSpaceOnUse"><stop stop-color="#EDE497"/><stop offset=".443" stop-color="#2AD9C2"/><stop offset="1" stop-color="#D891CE"/></linearGradient><linearGradient id="e" x1="24.222" x2="36.379" y1="0" y2="27.916" gradientUnits="userSpaceOnUse"><stop stop-color="#EDE497"/><stop offset=".443" stop-color="#2AD9C2"/><stop offset="1" stop-color="#D891CE"/></linearGradient><linearGradient id="f" x1="24.222" x2="36.379" y1="0" y2="27.916" gradientUnits="userSpaceOnUse"><stop stop-color="#EDE497"/><stop offset=".443" stop-color="#2AD9C2"/><stop offset="1" stop-color="#D891CE"/></linearGradient><linearGradient id="g" x1="24.222" x2="36.379" y1="0" y2="27.916" gradientUnits="userSpaceOnUse"><stop stop-color="#EDE497"/><stop offset=".443" stop-color="#2AD9C2"/><stop offset="1" stop-color="#D891CE"/></linearGradient><linearGradient id="h" x1="24.222" x2="36.379" y1="0" y2="27.916" gradientUnits="userSpaceOnUse"><stop stop-color="#EDE497"/><stop offset=".443" stop-color="#2AD9C2"/><stop offset="1" stop-color="#D891CE"/></linearGradient><clipPath id="a"><path fill="#fff" d="M0 0h289v30H0z"/></clipPath></defs></svg>