<svg width="348" height="37" viewBox="0 0 348 37" fill="none" xmlns="http://www.w3.org/2000/svg">
<g clip-path="url(#clip0_27_298)">
<path fill-rule="evenodd" clip-rule="evenodd" d="M44.8646 23.2692L44.7765 22.8232L44.5734 21.7595L43.6727 17.0728H58.3341V23.2692H44.8646Z" fill="url(#paint0_linear_27_298)"/>
<path fill-rule="evenodd" clip-rule="evenodd" d="M56.9187 33.2809C56.9187 33.2809 50.7494 32.9446 47.5395 29.7126C45.921 28.0863 45.2099 25.0602 45.2099 25.0602H51.5756C51.5756 25.0602 52.8758 26.1924 54.5011 26.5904C56.228 27.009 58.3341 27.009 58.3341 27.009L56.9187 33.2877V33.2809Z" fill="url(#paint1_linear_27_298)"/>
<path fill-rule="evenodd" clip-rule="evenodd" d="M26.3093 31.7987C24.7381 32.7182 23.3567 33.0544 22.1377 32.8897C20.8713 32.7182 19.7269 32.0045 18.6772 30.8449L16.7201 20.6479L15.5011 14.3348L15.1828 12.6674L15.0406 11.94C15.0406 11.94 14.2957 7.30813 13.842 5.81907C13.5102 4.72115 12.8533 4.04181 12.1761 3.77419H12.1625L12.1558 3.76733H12.1422L12.1354 3.76047H12.1219L12.1151 3.75361H12.1016L12.088 3.74675H11.9594L11.9526 3.73988H11.5801C11.8239 2.88213 12.2167 2.20965 12.684 1.695C13.6388 0.480424 15.0068 0.0618413 15.9955 0.00694519C16.9165 -0.0410889 18.2641 0.144185 19.3409 1.0637C20.0993 1.71559 20.7427 2.74489 21.0339 4.3506L26.3093 31.7987Z" fill="url(#paint2_linear_27_298)"/>
<path fill-rule="evenodd" clip-rule="evenodd" d="M28.1106 31.833L22.9233 4.82408C22.6727 3.42423 22.9977 1.12545 25.8691 0.967628C27.4537 0.878421 29.7156 1.54404 30.474 5.32501V5.35246L35.7494 32.7937C34.1783 33.7132 32.7968 34.0494 31.5779 33.8847C30.3115 33.7132 29.167 32.9995 28.1174 31.8398L28.1106 31.833Z" fill="url(#paint3_linear_27_298)"/>
<path fill-rule="evenodd" clip-rule="evenodd" d="M37.4153 32.6358C37.7065 34.2484 38.3499 35.2777 39.1084 35.9296C41.4312 37.9127 45.8262 37.1785 46.9165 33.3564C45.7991 33.3564 44.8849 32.2035 44.6005 31.1742C43.5237 27.2766 41.526 15.2818 41.526 15.2818L39.772 6.14845C38.7223 4.99563 37.5779 4.27512 36.3115 4.10357C35.0858 3.93888 33.7043 4.27512 32.14 5.19463L37.4153 32.6358Z" fill="url(#paint4_linear_27_298)"/>
<path fill-rule="evenodd" clip-rule="evenodd" d="M14.7833 19.9205H0V13.731H13.5914L13.6727 14.177L13.8826 15.2406L14.526 18.5893L14.7833 19.9205Z" fill="url(#paint5_linear_27_298)"/>
<path fill-rule="evenodd" clip-rule="evenodd" d="M1.41529 3.71932C1.41529 3.71932 7.58459 4.05556 10.7945 7.28757C12.413 8.91387 13.1241 11.94 13.1241 11.94H6.76518C6.76518 11.94 5.46495 10.8078 3.83967 10.4098C2.11281 9.99121 0.00671387 9.99121 0.00671387 9.99121L1.41529 3.71932Z" fill="url(#paint6_linear_27_298)"/>
<path fill-rule="evenodd" clip-rule="evenodd" d="M97.7676 30.8378V4.78959H91.6728L84.9143 15.8031L78.1558 4.78959H72.061V30.8378H77.6412V13.9435L84.806 24.9571H84.9549L92.1874 13.8269V30.8378H97.7676ZM128.987 30.8378L117.968 4.60431H112.754L101.736 30.8447H107.506L109.856 24.9982H120.725L123.075 30.8447H128.987V30.8378ZM118.7 19.9341H111.867L115.28 11.4869L118.693 19.9341H118.7ZM151.537 23.1318V23.0563C151.537 21.9172 151.361 20.9359 151.002 20.1193C150.65 19.3028 150.115 18.5891 149.418 17.9784C148.72 17.3677 147.86 16.8462 146.838 16.4138C145.822 15.9815 144.657 15.5904 143.357 15.2404C142.253 14.9454 141.345 14.6846 140.614 14.4582C139.889 14.2317 139.321 13.9984 138.901 13.7514C138.488 13.5044 138.196 13.223 138.041 12.9142C137.885 12.6054 137.804 12.2349 137.804 11.8163V11.7408C137.804 11.0958 138.081 10.5537 138.63 10.1214C139.178 9.68907 140.005 9.46949 141.108 9.46949C142.212 9.46949 143.309 9.69593 144.413 10.1557C145.517 10.6154 146.641 11.2399 147.792 12.0359L150.731 7.71967C149.411 6.65606 147.955 5.83262 146.377 5.26307C144.799 4.69352 143.066 4.40532 141.183 4.40532C139.862 4.40532 138.65 4.59059 137.553 4.96114C136.456 5.33169 135.508 5.86693 134.716 6.55999C133.923 7.25305 133.314 8.0765 132.874 9.03718C132.44 9.991 132.217 11.0683 132.217 12.2555V12.3309C132.217 13.621 132.42 14.6983 132.82 15.5698C133.226 16.4413 133.801 17.1618 134.533 17.7451C135.264 18.3284 136.165 18.8156 137.221 19.2136C138.278 19.6115 139.456 19.9684 140.756 20.2909C141.833 20.5654 142.713 20.8261 143.391 21.0732C144.061 21.3202 144.589 21.5672 144.975 21.8211C145.354 22.0682 145.612 22.3358 145.747 22.624C145.883 22.9122 145.95 23.2347 145.95 23.6121V23.6876C145.95 24.4561 145.625 25.06 144.975 25.4923C144.325 25.9246 143.418 26.1442 142.239 26.1442C140.77 26.1442 139.415 25.856 138.183 25.2864C136.944 24.7169 135.738 23.9483 134.567 22.9808L131.228 27.0363C132.772 28.4498 134.485 29.4997 136.368 30.1791C138.251 30.8584 140.174 31.2015 142.138 31.2015C143.533 31.2015 144.806 31.0231 145.95 30.6594C147.095 30.3026 148.084 29.7811 148.917 29.0949C149.75 28.4087 150.386 27.5715 150.853 26.5628C151.314 25.5609 151.544 24.4081 151.544 23.118L151.537 23.1318ZM175.923 10.0665V4.78959H154.619V10.0733H162.44V30.8378H168.095V10.0733H175.917L175.923 10.0665ZM199.795 30.8309V25.7325H185.838V20.2634H197.959V15.165H185.838V9.88121H199.612V4.78959H180.257V30.8378H199.795V30.8309ZM227.086 30.8309L220.808 21.5261C222.447 20.9085 223.774 19.9341 224.79 18.6028C225.806 17.2785 226.314 15.5561 226.314 13.4495V13.374C226.314 10.6703 225.461 8.5637 223.761 7.04719C222.061 5.53069 219.677 4.77587 216.616 4.77587H204.867V30.8378H210.522V22.5005H214.964L220.476 30.8378H227.086V30.8309ZM220.585 13.7514C220.585 14.8699 220.212 15.762 219.467 16.4276C218.722 17.1 217.652 17.4294 216.251 17.4294H210.522V9.96355H216.142C217.537 9.96355 218.628 10.2723 219.413 10.8968C220.199 11.5144 220.592 12.4476 220.592 13.6896V13.7651L220.585 13.7514ZM251.77 13.8612V13.7857C251.77 12.4476 251.546 11.2262 251.093 10.1214C250.639 9.01659 249.989 8.06963 249.149 7.27364C248.303 6.47765 247.273 5.86693 246.061 5.43462C244.849 5.00231 243.474 4.78273 241.93 4.78273H231.427V30.8378H237.081V23.022H241.382C242.824 23.022 244.178 22.8298 245.438 22.4456C246.698 22.0613 247.801 21.4849 248.743 20.7163C249.684 19.9478 250.429 18.994 250.964 17.848C251.506 16.7089 251.77 15.3777 251.77 13.868V13.8612ZM246.041 13.971C246.041 15.0895 245.648 16.0227 244.862 16.7775C244.077 17.5324 242.98 17.9098 241.558 17.9098H237.075V9.96355H241.443C242.865 9.96355 243.982 10.2998 244.801 10.9654C245.621 11.6379 246.034 12.6123 246.034 13.9023V13.9778L246.041 13.971ZM282.142 17.8068V17.7314C282.142 15.8717 281.804 14.1288 281.133 12.5025C280.463 10.8762 279.515 9.46262 278.303 8.26177C277.09 7.06092 275.655 6.10023 273.989 5.39345C272.323 4.68666 270.501 4.32983 268.517 4.32983C266.533 4.32983 264.704 4.68666 263.025 5.39345C261.345 6.10023 259.903 7.06778 258.691 8.29608C257.479 9.52438 256.531 10.9517 255.847 12.578C255.163 14.2043 254.817 15.9472 254.817 17.8068V17.8823C254.817 19.7419 255.156 21.4849 255.826 23.1112C256.497 24.7375 257.445 26.1511 258.657 27.3519C259.869 28.5528 261.305 29.5134 262.971 30.2202C264.637 30.927 266.458 31.2838 268.443 31.2838C270.427 31.2838 272.255 30.9339 273.935 30.2202C275.614 29.5134 277.057 28.5459 278.269 27.3176C279.481 26.0893 280.429 24.662 281.113 23.0357C281.797 21.4094 282.142 19.6664 282.142 17.8068ZM276.23 17.8823C276.23 19.0008 276.041 20.0439 275.661 21.0251C275.282 22.0064 274.754 22.8641 274.084 23.6121C273.413 24.3532 272.594 24.9365 271.639 25.3619C270.684 25.7874 269.641 25.9932 268.517 25.9932C267.393 25.9932 266.316 25.7736 265.375 25.3413C264.433 24.909 263.614 24.3189 262.917 23.5709C262.219 22.8298 261.677 21.9584 261.298 20.9634C260.919 19.9684 260.729 18.9185 260.729 17.8V17.7245C260.729 16.606 260.919 15.563 261.298 14.5817C261.677 13.6004 262.206 12.7427 262.876 11.9947C263.546 11.2536 264.359 10.6703 265.3 10.2449C266.242 9.82631 267.291 9.61359 268.443 9.61359C269.594 9.61359 270.61 9.83317 271.564 10.2655C272.519 10.6978 273.345 11.2879 274.043 12.0359C274.741 12.7838 275.282 13.6485 275.661 14.6434C276.041 15.6384 276.23 16.6883 276.23 17.8068V17.8823ZM293.086 30.8309V4.78959H287.431V30.8378H293.086V30.8309ZM322.361 30.8309V4.78959H316.781V20.8261L304.734 4.78273H299.519V30.8378H305.099V14.2798L317.553 30.8447H322.361V30.8309ZM348 10.0665V4.78959H326.695V10.0733H334.517V30.8378H340.172V10.0733H347.993L348 10.0665Z" fill="#0E383A"/>
</g>
<defs>
<linearGradient id="paint0_linear_27_298" x1="-1.90875" y1="26.378" x2="34.3733" y2="28.4542" gradientUnits="userSpaceOnUse">
<stop stop-color="#EDE497"/>
<stop offset="0.442708" stop-color="#2AD9C2"/>
<stop offset="1" stop-color="#D891CE"/>
</linearGradient>
<linearGradient id="paint1_linear_27_298" x1="-1.90875" y1="26.378" x2="34.3733" y2="28.4542" gradientUnits="userSpaceOnUse">
<stop stop-color="#EDE497"/>
<stop offset="0.442708" stop-color="#2AD9C2"/>
<stop offset="1" stop-color="#D891CE"/>
</linearGradient>
<linearGradient id="paint2_linear_27_298" x1="-1.90875" y1="26.378" x2="34.3733" y2="28.4542" gradientUnits="userSpaceOnUse">
<stop stop-color="#EDE497"/>
<stop offset="0.442708" stop-color="#2AD9C2"/>
<stop offset="1" stop-color="#D891CE"/>
</linearGradient>
<linearGradient id="paint3_linear_27_298" x1="-1.90875" y1="26.378" x2="34.3733" y2="28.4542" gradientUnits="userSpaceOnUse">
<stop stop-color="#EDE497"/>
<stop offset="0.442708" stop-color="#2AD9C2"/>
<stop offset="1" stop-color="#D891CE"/>
</linearGradient>
<linearGradient id="paint4_linear_27_298" x1="-1.90875" y1="26.378" x2="34.3733" y2="28.4542" gradientUnits="userSpaceOnUse">
<stop stop-color="#EDE497"/>
<stop offset="0.442708" stop-color="#2AD9C2"/>
<stop offset="1" stop-color="#D891CE"/>
</linearGradient>
<linearGradient id="paint5_linear_27_298" x1="-1.90875" y1="26.378" x2="34.3733" y2="28.4542" gradientUnits="userSpaceOnUse">
<stop stop-color="#EDE497"/>
<stop offset="0.442708" stop-color="#2AD9C2"/>
<stop offset="1" stop-color="#D891CE"/>
</linearGradient>
<linearGradient id="paint6_linear_27_298" x1="-1.90875" y1="26.378" x2="34.3733" y2="28.4542" gradientUnits="userSpaceOnUse">
<stop stop-color="#EDE497"/>
<stop offset="0.442708" stop-color="#2AD9C2"/>
<stop offset="1" stop-color="#D891CE"/>
</linearGradient>
<clipPath id="clip0_27_298">
<rect width="348" height="37" fill="white"/>
</clipPath>
</defs>
</svg>
