<svg xmlns="http://www.w3.org/2000/svg" width="99" height="99" fill="none" viewBox="0 0 99 99"><path fill="#7696BB" d="M13.195 43.85a1.484 1.484 0 0 1-1.698 1.226 1.484 1.484 0 0 1-1.226-1.697 39.6 39.6 0 0 1 5.519-14.614 40 40 0 0 1 10.762-11.401 1.484 1.484 0 0 1 2.065.348 1.484 1.484 0 0 1-.348 2.065 37.1 37.1 0 0 0-9.973 10.553 36.6 36.6 0 0 0-5.105 13.524zM38.803 6.311a1.48 1.48 0 1 1 1.617-2.483l9.934 6.463a1.48 1.48 0 0 1 .433 2.05l-.116.158-8.148 9.54a1.482 1.482 0 0 1-2.25-1.926l5.936-6.95a36.5 36.5 0 0 0-5.577.94 36.5 36.5 0 0 0-7.309 2.669c-.735.36-1.62.054-1.98-.677a1.48 1.48 0 0 1 .677-1.98 39.6 39.6 0 0 1 12.936-3.801zm19.595 86.336a1.48 1.48 0 1 1-1.485 2.56l-10.05-5.804a1.48 1.48 0 0 1-.537-2.023l.166-.232 8.23-10.159a1.48 1.48 0 0 1 2.084-.212c.634.514.73 1.45.213 2.084l-6.331 7.812a36.6 36.6 0 0 0 15.484-3.933 37 37 0 0 0 13.08-11.083 1.483 1.483 0 0 1 2.068-.321c.661.483.8 1.411.321 2.069a40 40 0 0 1-14.13 11.977 39.6 39.6 0 0 1-14.534 4.13l5.426 3.133zM92.77 41.078a1.48 1.48 0 1 1 2.56 1.485l-6.276 10.87a1.48 1.48 0 0 1-2.29.34L77.04 44.69a1.484 1.484 0 0 1 2.018-2.173l7.325 6.84a36.66 36.66 0 0 0-8.145-22.63c-5.193-6.439-12.514-11.095-20.89-12.9a1.482 1.482 0 0 1 .615-2.897c9.057 1.949 16.973 6.98 22.583 13.94a39.6 39.6 0 0 1 8.717 22.268l3.504-6.072zM6.228 61.467a1.48 1.48 0 1 1-2.56-1.485l6.276-10.87a1.48 1.48 0 0 1 2.29-.34l9.726 9.083a1.484 1.484 0 0 1-2.02 2.174l-7.065-6.598q.089.933.229 1.86a37 37 0 0 0 .943 4.475 1.482 1.482 0 0 1-2.854.788 40 40 0 0 1-1.024-4.83l-.117-.87-3.824 6.62zm79.12-2.878a1.485 1.485 0 0 1 1.786-1.09c.793.193 1.28.994 1.09 1.786a39.8 39.8 0 0 1-3.275 8.779 1.482 1.482 0 0 1-2.634-1.357 37 37 0 0 0 1.76-3.972 37 37 0 0 0 1.272-4.146M40.084 85.466a1.483 1.483 0 0 1-.754 2.866 39.6 39.6 0 0 1-12.85-6.037 40 40 0 0 1-9.946-10.193 1.481 1.481 0 1 1 2.46-1.655 37 37 0 0 0 9.203 9.439 36.6 36.6 0 0 0 11.888 5.584zM16.101 65.321c.344.739.027 1.62-.712 1.969a1.484 1.484 0 0 1-1.968-.712l-.05-.108a1.484 1.484 0 0 1 .711-1.968 1.484 1.484 0 0 1 1.968.711z"/></svg>