<svg xmlns="http://www.w3.org/2000/svg" width="99" height="99" fill="none" viewBox="0 0 99 99"><path fill="#BA6EB2" d="m87.021 43.154-3.129-1.207A18.94 18.94 0 0 0 89.095 28.9c0-10.475-8.52-18.999-18.997-18.999a18.93 18.93 0 0 0-13.052 5.206l-1.21-3.133C55.35 10.713 54.07 9.9 52.578 9.9h-6.16c-1.493 0-2.777.813-3.264 2.073l-1.504 3.898a34.3 34.3 0 0 0-10.372 4.304l-3.825-1.69c-1.233-.549-2.714-.22-3.778.84l-4.358 4.358c-1.056 1.056-1.385 2.533-.843 3.77l1.697 3.83a34.2 34.2 0 0 0-4.3 10.371l-3.902 1.504c-1.257.487-2.073 1.768-2.073 3.264v6.16c0 1.497.812 2.777 2.073 3.264l3.898 1.501a34 34 0 0 0 4.304 10.375l-1.697 3.829c-.546 1.233-.213 2.714.843 3.766l4.358 4.359c1.06 1.06 2.545 1.392 3.774.843l3.821-1.694a34.2 34.2 0 0 0 10.375 4.3l1.509 3.906c.487 1.257 1.77 2.069 3.263 2.069h6.16c1.494 0 2.77-.812 3.26-2.073l1.505-3.902a34.3 34.3 0 0 0 10.677-4.49l5.395 5.395-2.889 2.889a1.124 1.124 0 0 0 .793 1.918h.02l16.133-.278a1.12 1.12 0 0 0 1.102-1.102l.271-16.134a1.122 1.122 0 0 0-1.918-.812L84.037 73.4l-5.395-5.395a34.4 34.4 0 0 0 4.475-10.651l3.898-1.5c1.257-.488 2.073-1.768 2.073-3.264v-6.16c.003-1.509-.809-2.79-2.07-3.276zM70.098 12.147c9.235 0 16.752 7.518 16.752 16.757 0 9.238-7.514 16.756-16.752 16.756-9.239 0-16.757-7.517-16.757-16.756.004-9.243 7.518-16.757 16.757-16.757M72.325 49.5a22.9 22.9 0 0 1-2.258 9.916L53.05 42.399a1.124 1.124 0 0 0-1.585 0l-5.279 5.279-13.551-13.554c4.176-4.579 10.19-7.456 16.864-7.456q.868 0 1.725.07-.123 1.066-.124 2.161c0 10.476 8.523 19 19 19q1.096-.001 2.157-.124.065.865.066 1.724zM56.281 81.064c-.371.078-.677.34-.812.693l-1.721 4.459c-.147.382-.619.638-1.168.638h-6.16c-.554 0-1.025-.256-1.172-.635l-1.721-4.462a1.12 1.12 0 0 0-.812-.693 32 32 0 0 1-10.736-4.447 1.13 1.13 0 0 0-1.063-.085l-4.374 1.938c-.372.166-.886.015-1.277-.38l-4.358-4.358c-.39-.39-.541-.9-.375-1.272l1.941-4.378a1.11 1.11 0 0 0-.085-1.063 32 32 0 0 1-4.45-10.736 1.12 1.12 0 0 0-.693-.812l-4.455-1.717c-.38-.147-.638-.619-.638-1.172v-6.16c0-.553.255-1.025.634-1.172l4.463-1.72c.352-.136.615-.442.692-.813a32 32 0 0 1 4.447-10.731 1.13 1.13 0 0 0 .085-1.064l-1.941-4.374c-.166-.375-.015-.885.375-1.276l4.358-4.358c.391-.39.905-.546 1.28-.375l4.378 1.937c.348.155.747.12 1.064-.085a32 32 0 0 1 10.731-4.451c.371-.081.677-.34.812-.692l1.721-4.455c.147-.383.619-.638 1.172-.638h6.16c.55 0 1.017.255 1.164.634l1.605 4.157a19 19 0 0 0-3.74 7.58 26 26 0 0 0-2.11-.093c-7.677 0-14.56 3.469-19.162 8.921l-.035.031a1.4 1.4 0 0 0-.155.19 25 25 0 0 0-5.572 13.16l-.004.031a26 26 0 0 0-.151 2.738c0 13.826 11.25 25.071 25.075 25.071 4.053 0 8.052-.982 11.613-2.846l5.282 5.282a32 32 0 0 1-10.113 4.053M26.67 49.427l18.725 18.725a1.125 1.125 0 0 0 1.585 0l5.28-5.278 7.184 7.185a22.9 22.9 0 0 1-9.943 2.27c-12.587 0-22.83-10.24-22.83-22.828zm57.377 26.676c.298 0 .584-.12.793-.329l1.717-1.717-.205 12.271-12.271.213 1.717-1.717a1.13 1.13 0 0 0 0-1.59L53.054 60.492a1.123 1.123 0 0 0-1.586 0L46.19 65.77 26.87 46.453a22.7 22.7 0 0 1 4.326-10.588L45.39 50.057a1.123 1.123 0 0 0 1.585 0l5.28-5.278 30.998 30.996c.209.213.495.329.793.329zm2.804-23.52c0 .552-.256 1.024-.635 1.17l-4.459 1.718c-.351.135-.614.44-.692.812a31.9 31.9 0 0 1-4.04 10.087l-5.284-5.283a25.13 25.13 0 0 0 2.742-13.698 19 19 0 0 0 7.58-3.74l4.153 1.602c.38.147.639.618.639 1.171zM63.798 26.331c-.669-1.335-.719-2.866-.139-4.196.673-1.555 2.135-2.73 4.115-3.318q.597-.174 1.207-.26v-1.051a1.122 1.122 0 0 1 2.243 0v1.032c1.879.24 3.6 1.102 4.698 2.471a1.123 1.123 0 0 1-1.748 1.408c-1.187-1.473-3.612-2.084-5.766-1.45-1.33.394-2.285 1.125-2.691 2.057-.317.731-.287 1.547.088 2.297.84 1.675 2.081 1.91 4.208 2.181 1.876.24 4.215.542 5.866 2.808 1.052 1.439 1.343 3.187.797 4.8-.619 1.828-2.208 3.205-4.47 3.874-.325.097-.654.17-.983.228v1.075a1.122 1.122 0 0 1-2.243 0v-.974c-2.127-.17-4.107-1.098-5.344-2.63a1.12 1.12 0 0 1 .17-1.578 1.12 1.12 0 0 1 1.578.17c1.276 1.582 3.879 2.24 6.187 1.555 1.547-.456 2.603-1.322 2.982-2.44.31-.909.132-1.914-.483-2.757-1.083-1.485-2.591-1.679-4.34-1.903-2.014-.255-4.516-.576-5.932-3.4"/></svg>