<svg xmlns="http://www.w3.org/2000/svg" width="99" height="99" fill="none" viewBox="0 0 99 99"><path fill="#88D098" d="M11.706 87.36c.054.007.1.03.155.03h28.953l.016.004h44.469c.68 0 1.28-.445 1.477-1.094l9.06-29.607a1.56 1.56 0 0 0-.235-1.373 1.54 1.54 0 0 0-1.245-.626H56.334a17.41 17.41 0 0 0-16.057-10.702h-19.8c-9.587 0-17.386 7.804-17.386 17.403v17.232c0 .054.027.1.03.154a9.225 9.225 0 0 0 8.583 8.578zm72.448-3.06H42.922l8.114-26.513h41.232zM6.188 61.395c0-7.889 6.411-14.309 14.294-14.309h19.8a14.32 14.32 0 0 1 12.648 7.607h-3.04c-.68 0-1.28.445-1.477 1.094l-8.724 28.51h-3.643c1.137-1.44 1.74-3.172 1.64-4.982a7.64 7.64 0 0 0-2.231-4.996 7.62 7.62 0 0 0-5.418-2.243H19.774v-8.98a1.546 1.546 0 1 0-3.094 0v9.316a2.76 2.76 0 0 0 2.757 2.758h10.596a4.565 4.565 0 0 1 4.563 4.316c.063 1.183-.37 2.335-1.229 3.24a5.04 5.04 0 0 1-3.643 1.57l-17.402.004a6.14 6.14 0 0 1-6.134-6.133zM30.384 11.61c-8.45 0-15.322 6.871-15.322 15.321s6.872 15.322 15.322 15.322 15.322-6.872 15.322-15.322S38.834 11.61 30.384 11.61m0 27.55c-6.744 0-12.228-5.484-12.228-12.229s5.484-12.228 12.228-12.228c6.745 0 12.228 5.484 12.228 12.228 0 6.745-5.484 12.228-12.228 12.228m34.608-15.255a1.55 1.55 0 0 0-2.189 0l-7.17 7.17a1.55 1.55 0 0 0 0 2.188l7.17 7.17a1.546 1.546 0 1 0 2.189-2.189l-6.075-6.075 6.075-6.076a1.55 1.55 0 0 0 0-2.188m15.044 16.524a1.546 1.546 0 0 0 2.189 0l7.17-7.17a1.55 1.55 0 0 0 0-2.189l-7.17-7.17a1.55 1.55 0 0 0-2.19 0 1.55 1.55 0 0 0 0 2.189l6.076 6.075-6.075 6.076a1.55 1.55 0 0 0 0 2.189M76.423 23.59a1.547 1.547 0 0 0-2.05.766l-6.535 14.34a1.547 1.547 0 1 0 2.815 1.283l6.536-14.34a1.547 1.547 0 0 0-.766-2.049"/></svg>