<svg xmlns="http://www.w3.org/2000/svg" fill="#fff" width="190" height="60" viewBox="0 0 169 53"><path d="M159.284 24.832c-.596 4.453-2.41 7.11-4.979 7.288a5.7 5.7 0 0 1-2.513-.561 5.6 5.6 0 0 1-1.995-1.61 16.6 16.6 0 0 0 4.697-4.972 16.4 16.4 0 0 0 2.272-6.416 125.9 125.9 0 0 1-31.614 5.044 16.54 16.54 0 0 0 5.473 6.347 24.74 24.74 0 0 0-6.21 16.887h4.331a20.7 20.7 0 0 1 4.503-13.324 123 123 0 0 0-1.22 13.324h7.688s-1.41-5.754.886-5.759c2.295.005.885 5.76.885 5.76h7.689a121 121 0 0 0-1.118-12.592c.855.68 1.816 1.22 2.845 1.6a9 9 0 0 0 3.706.537 8.4 8.4 0 0 0 3.247-.922 8.3 8.3 0 0 0 2.605-2.125c1.617-1.907 2.665-4.58 3.115-7.947z"></path><path fill="url(#logo-saturn-head_svg__a)" d="M141.347 23.485c15.272-2.453 27.161-7.42 26.556-11.093s-13.477-4.664-28.749-2.212-27.161 7.419-26.556 11.092 13.477 4.665 28.749 2.213"></path><path d="M7.77 37.783c-3.317-.442-3.587-1.046-3.587-1.732 0-.583.353-1.562 2.713-1.562 2.7 0 3.28 1.093 3.481 1.915l.037.148h3.504l-.02-.212c-.1-1.049-.885-4.469-6.833-4.469-4.731 0-6.41 2.402-6.41 4.46 0 2.503 1.916 3.87 6.217 4.43 3.676.442 3.98 1.202 3.98 2.01 0 1.184-1.084 1.785-3.222 1.785-2.24 0-3.6-.769-4.048-2.285l-.041-.14H0l.036.224c.499 3.098 3.195 4.875 7.397 4.875 4.414 0 6.947-1.717 6.947-4.71 0-1.991-.8-3.943-6.61-4.737M26.1 31.871c-2.778 0-4.338 1.135-5.204 2.266-.008-.684-.033-1.375-.081-1.709l-.024-.166h-3.479l.005.198c.028 1.169.028 2.366.028 3.536V53h3.556v-7.698a5.76 5.76 0 0 0 2.131 1.508 5.8 5.8 0 0 0 2.587.42c4.219 0 7.4-3.404 7.4-7.916 0-4.243-2.975-7.443-6.919-7.443m3.278 7.582c0 2.225-1.125 4.824-4.294 4.824-2.672 0-4.267-1.741-4.267-4.657 0-3.048 1.576-4.796 4.323-4.796 2.928 0 4.238 2.325 4.238 4.629M49.314 43.02v-5.993c0-3.42-2.28-5.156-6.777-5.156-5.698 0-6.617 3.302-6.748 4.72l-.02.212h3.537l.033-.153c.223-1.019.673-2.105 3.227-2.105 2.88 0 3.249 1.371 3.249 2.566v.503H42.65c-5.168 0-7.681 1.587-7.681 4.85 0 2.372 1.78 4.766 5.76 4.766 2.458 0 4.194-.648 5.175-1.926q.02.698.142 1.385l.036.15h3.363l-.018-.21a63 63 0 0 1-.113-3.608m-10.846-.724c0-1.544 1.268-2.203 4.239-2.203 1.68 0 2.633 0 3.108.017v.318c0 2.684-1.474 4.044-4.38 4.044-1.885 0-2.967-.793-2.967-2.176M64.05 42.047a3.76 3.76 0 0 1-1.538 1.802c-.695.422-1.51.61-2.323.539-2.592 0-4.267-1.904-4.267-4.852 0-2.93 1.675-4.824 4.267-4.824a3.7 3.7 0 0 1 2.325.573 3.63 3.63 0 0 1 1.474 1.866l.047.126h3.5l-.035-.224c-.3-1.925-2.172-5.182-7.283-5.182a7.7 7.7 0 0 0-3.054.504 7.6 7.6 0 0 0-2.597 1.663 7.5 7.5 0 0 0-1.713 2.545 7.4 7.4 0 0 0-.543 3.009c0 4.64 3.093 7.637 7.88 7.637 3.784 0 6.537-1.889 7.363-5.052l.063-.242h-3.513zM77.245 31.871c-4.573 0-7.767 3.175-7.767 7.721 0 3.802 2.42 7.637 7.824 7.637 5.01 0 6.796-2.893 7.415-4.617l.094-.259h-3.559l-.055.1c-.765 1.358-1.93 1.963-3.782 1.963a4.23 4.23 0 0 1-3.002-1.08 4.12 4.12 0 0 1-1.362-2.853h11.876v-.974c0-3.523-2.013-7.638-7.682-7.638m-.028 2.73c3.146 0 3.9 2.043 4.05 3.404h-8.15c.317-2.167 1.8-3.404 4.1-3.404M91.393 25.543h-3.557v21.296h3.557zM97.212 25.599c-.357 0-.706.104-1.003.3a1.8 1.8 0 0 0-.665.8 1.76 1.76 0 0 0 .391 1.942 1.827 1.827 0 0 0 1.968.386 1.8 1.8 0 0 0 .81-.656 1.766 1.766 0 0 0-.224-2.25 1.82 1.82 0 0 0-1.277-.522M99.018 32.262H95.46v14.577h3.557zM120.482 35.046v-2.785h-3.644v-4.46h-3.556v4.46h-5.595v-1.423c0-2.01.502-2.622 2.149-2.622q.576-.003 1.142.106l.24.055v-2.846l-.145-.038a7.5 7.5 0 0 0-1.802-.173c-3.362 0-5.139 1.869-5.139 5.406v1.535h-2.628v2.785h2.628v11.792h3.555V35.046h5.595v7.585c0 3.088 1.227 4.347 4.235 4.347a7.8 7.8 0 0 0 2.435-.288l.135-.045v-2.609l-.238.05a7.3 7.3 0 0 1-1.316.107c-1.3 0-1.695-.469-1.695-2.008v-7.139zM155.254 9.328a16.6 16.6 0 0 0-8.408-7.97 16.9 16.9 0 0 0-11.641-.602 16.68 16.68 0 0 0-9.206 7.06 16.3 16.3 0 0 0-2.286 11.282c.805 4.918 33.824-.111 32.98-5.263a16.4 16.4 0 0 0-1.439-4.507"></path><defs><linearGradient id="logo-saturn-head_svg__a" x1="112.576" x2="167.925" y1="16.832" y2="16.832" gradientUnits="userSpaceOnUse"><stop offset="0.082" stop-color="#82FFE8"></stop><stop offset="0.951" stop-color="#7C47FC"></stop></linearGradient></defs></svg>
