<svg xmlns="http://www.w3.org/2000/svg" width="68" height="45" fill="none" viewBox="0 0 68 45"><path fill="#fff" fill-rule="evenodd" d="M66.0544 39.6722C66.0544 39.6722 58.9603 39.2739 55.2692 35.4455C53.408 33.5191 52.5904 29.9345 52.5904 29.9345H59.9103C59.9103 29.9345 61.4055 31.2757 63.2744 31.7471C65.2601 32.243 67.6819 32.243 67.6819 32.243L66.0544 39.6803V39.6722Z" clip-rule="evenodd"/><path fill="#fff" fill-rule="evenodd" d="M32.9278 37.9571L26.9628 5.9643C26.6747 4.30613 27.0485 1.58316 30.3502 1.39621C32.1724 1.29055 34.7734 2.07899 35.6455 6.55766V6.59017L41.7117 39.0951C39.9051 40.1843 38.3165 40.5826 36.9148 40.3875C35.4586 40.1843 34.1426 39.3389 32.9356 37.9653L32.9278 37.9571Z" clip-rule="evenodd"/><path fill="#fff" fill-rule="evenodd" d="M52.1932 27.813L52.092 27.2847L51.8584 26.0248L50.8227 20.4732H67.6819V27.813H52.1932Z" clip-rule="evenodd"/><path fill="#fff" fill-rule="evenodd" d="M30.8564 37.9165C29.0498 39.0056 27.4612 39.4039 26.0595 39.2089C24.6033 39.0056 23.2873 38.1603 22.0803 36.7866L20.0634 25.9679L19.8298 24.708L18.4281 17.23L18.0621 15.2549L17.8986 14.3933C17.8986 14.3933 17.042 8.9067 16.5202 7.14286C16.1387 5.84234 15.3833 5.03764 14.6046 4.72064H14.589L14.5812 4.71251H14.5657L14.5579 4.70439H14.5423L14.5345 4.69626H14.5189L14.5034 4.68813H14.3554L14.3476 4.68H13.896C14.1763 3.66397 14.628 2.8674 15.1653 2.25778C16.2866 0.819077 17.8596 0.323253 18.9966 0.258227C20.0556 0.201329 21.6053 0.420792 22.8434 1.50998C23.7156 2.28216 24.4554 3.5014 24.7902 5.40342L30.8564 37.9165Z" clip-rule="evenodd"/><path fill="#fff" fill-rule="evenodd" d="M43.6274 38.9081C43.9622 40.8182 44.702 42.0375 45.5741 42.8097C48.2451 45.1587 53.299 44.289 54.5527 39.7616C53.2679 39.7616 52.2166 38.396 51.8895 37.1768C50.6514 32.5599 48.3542 18.3517 48.3542 18.3517L46.3373 7.53302C45.1303 6.15934 43.8142 5.314 42.358 5.1108C40.9486 4.91572 39.36 5.314 37.5612 6.40319L43.6274 38.9081Z" clip-rule="evenodd"/><path fill="#fff" fill-rule="evenodd" d="M17.6027 23.8464H0.603271V16.5147H16.2321L16.3256 17.0431L16.567 18.303L17.3067 22.2696L17.6027 23.8464Z" clip-rule="evenodd"/><path fill="#fff" fill-rule="evenodd" d="M2.23078 4.65562C2.23078 4.65562 9.32488 5.05391 13.016 8.88232C14.8771 10.8087 15.6948 14.3933 15.6948 14.3933H8.38264C8.38264 14.3933 6.8875 13.0521 5.01858 12.5807C3.03285 12.0849 0.611047 12.0849 0.611047 12.0849L2.23078 4.65562Z" clip-rule="evenodd"/></svg>