<svg xmlns="http://www.w3.org/2000/svg" width="63" height="58" fill="none" viewBox="0 0 63 58"><g clip-path="url(#clip0_10_32)"><path fill="#000" d="M33.9031 21.7622H50.9648C51.2742 21.7622 51.5712 21.6374 51.7908 21.4157C52.0104 21.1935 52.1349 20.8924 52.1369 20.5767V16.876C53.3778 16.5683 54.3977 15.6718 54.8776 14.4663C55.3574 13.2614 55.2394 11.8944 54.5597 10.7937C53.8799 9.69226 52.7223 8.99138 51.4473 8.90927C50.1723 8.82717 48.9367 9.37386 48.1265 10.3791C47.3162 11.3844 47.0298 12.7248 47.3562 13.9824C47.6833 15.2399 48.584 16.2599 49.777 16.7252H49.8006V19.3605H33.9031C33.4817 19.3605 33.0916 19.5894 32.8812 19.9612C32.6708 20.333 32.6708 20.791 32.8812 21.1628C33.0916 21.5346 33.4817 21.7635 33.9031 21.7635V21.7622ZM49.5804 12.9591C49.5804 12.5185 49.7515 12.096 50.0569 11.7842C50.3618 11.4718 50.776 11.2956 51.2087 11.293C51.6426 11.2909 52.0602 11.4645 52.3689 11.7762C52.677 12.088 52.8514 12.5112 52.8527 12.9537C52.854 13.3956 52.6829 13.8208 52.3761 14.1339C52.0694 14.4476 51.6531 14.6238 51.2192 14.6252C50.7852 14.6265 50.3683 14.4509 50.0602 14.1379C49.7528 13.8255 49.5804 13.4016 49.5804 12.9591Z"/><path fill="#fff" d="M33.9031 21.7622H50.9648C51.2742 21.7622 51.5712 21.6374 51.7908 21.4157C52.0104 21.1935 52.1349 20.8924 52.1369 20.5767V16.876C53.3778 16.5683 54.3977 15.6718 54.8776 14.4663C55.3574 13.2614 55.2394 11.8944 54.5597 10.7937C53.8799 9.69226 52.7223 8.99138 51.4473 8.90927C50.1723 8.82717 48.9367 9.37386 48.1265 10.3791C47.3162 11.3844 47.0298 12.7248 47.3562 13.9824C47.6833 15.2399 48.584 16.2599 49.777 16.7252H49.8006V19.3605H33.9031C33.4817 19.3605 33.0916 19.5894 32.8812 19.9612C32.6708 20.333 32.6708 20.791 32.8812 21.1628C33.0916 21.5346 33.4817 21.7635 33.9031 21.7635V21.7622ZM49.5804 12.9591C49.5804 12.5185 49.7515 12.096 50.0569 11.7842C50.3618 11.4718 50.776 11.2956 51.2087 11.293C51.6426 11.2909 52.0602 11.4645 52.3689 11.7762C52.677 12.088 52.8514 12.5112 52.8527 12.9537C52.854 13.3956 52.6829 13.8208 52.3761 14.1339C52.0694 14.4476 51.6531 14.6238 51.2192 14.6252C50.7852 14.6265 50.3683 14.4509 50.0602 14.1379C49.7528 13.8255 49.5804 13.4016 49.5804 12.9591Z"/><path fill="#000" d="M33.9031 13.9523V13.9283H40.731C41.0404 13.9283 41.3373 13.8035 41.5569 13.5818C41.7765 13.3596 41.9011 13.0578 41.903 12.7428V9.05812C43.1282 8.74573 44.1318 7.85327 44.6005 6.65842C45.0691 5.46425 44.9459 4.1132 44.2688 3.02716C43.5923 1.94113 42.4445 1.25225 41.1833 1.17482C39.9227 1.09806 38.7022 1.64208 37.9024 2.63801C37.1027 3.63393 36.8221 4.96028 37.1473 6.20318C37.4718 7.44608 38.3633 8.45469 39.5432 8.91394V11.5493H33.9031C33.4817 11.5493 33.0916 11.7782 32.8812 12.15C32.6708 12.5218 32.6708 12.9797 32.8812 13.3516C33.0916 13.7234 33.4817 13.9523 33.9031 13.9523ZM39.3465 5.18122C39.338 4.73399 39.5071 4.30144 39.8146 3.98237C40.1227 3.66264 40.5435 3.48307 40.9827 3.48307V3.51512C41.4166 3.51512 41.8329 3.69067 42.1397 4.00307C42.4464 4.31546 42.6188 4.73933 42.6188 5.18122C42.6188 5.62311 42.4464 6.04698 42.1397 6.35938C41.8329 6.67177 41.4166 6.84733 40.9827 6.84733C40.5487 6.84733 40.1325 6.67177 39.8257 6.35938C39.5189 6.04698 39.3465 5.62311 39.3465 5.18122Z"/><path fill="#fff" d="M33.9031 13.9523V13.9283H40.731C41.0404 13.9283 41.3373 13.8035 41.5569 13.5818C41.7765 13.3596 41.9011 13.0578 41.903 12.7428V9.05812C43.1282 8.74573 44.1318 7.85327 44.6005 6.65842C45.0691 5.46425 44.9459 4.1132 44.2688 3.02716C43.5923 1.94113 42.4445 1.25225 41.1833 1.17482C39.9227 1.09806 38.7022 1.64208 37.9024 2.63801C37.1027 3.63393 36.8221 4.96028 37.1473 6.20318C37.4718 7.44608 38.3633 8.45469 39.5432 8.91394V11.5493H33.9031C33.4817 11.5493 33.0916 11.7782 32.8812 12.15C32.6708 12.5218 32.6708 12.9797 32.8812 13.3516C33.0916 13.7234 33.4817 13.9523 33.9031 13.9523ZM39.3465 5.18122C39.338 4.73399 39.5071 4.30144 39.8146 3.98237C40.1227 3.66264 40.5435 3.48307 40.9827 3.48307V3.51512C41.4166 3.51512 41.8329 3.69067 42.1397 4.00307C42.4464 4.31546 42.6188 4.73933 42.6188 5.18122C42.6188 5.62311 42.4464 6.04698 42.1397 6.35938C41.8329 6.67177 41.4166 6.84733 40.9827 6.84733C40.5487 6.84733 40.1325 6.67177 39.8257 6.35938C39.5189 6.04698 39.3465 5.62311 39.3465 5.18122Z"/><path fill="#000" d="M62.9791 28.233C62.8775 27.2498 62.4232 26.3393 61.7021 25.6771C60.9811 25.015 60.0456 24.6472 59.0748 24.6458C58.2279 24.6438 57.4026 24.9202 56.7229 25.4335C56.0424 25.9475 55.5429 26.6711 55.2991 27.4968H33.9031C33.4817 27.4968 33.0916 27.7257 32.8812 28.0975C32.6708 28.4693 32.6708 28.9272 32.8812 29.299C33.0916 29.6708 33.4817 29.8998 33.9031 29.8998H55.3305C55.6334 30.839 56.2666 31.6307 57.1083 32.1233C57.95 32.6159 58.9411 32.7734 59.8903 32.5665C60.8395 32.3596 61.6805 31.8022 62.2501 31.0025C62.8204 30.2028 63.0794 29.2156 62.9784 28.233H62.9791ZM60.2266 29.8577C59.9218 30.1701 59.5075 30.3464 59.0748 30.3484C58.6409 30.3504 58.2233 30.1768 57.9146 29.8651C57.6065 29.5534 57.4321 29.1302 57.4308 28.6876C57.4295 28.2457 57.6006 27.8205 57.9074 27.5068C58.2141 27.193 58.6304 27.0168 59.0643 27.0162C59.4983 27.0155 59.9152 27.1904 60.2233 27.5034C60.5307 27.8158 60.7031 28.2397 60.7031 28.6823C60.7031 29.1248 60.532 29.5454 60.2266 29.8571V29.8577Z"/><path fill="#fff" d="M62.9791 28.233C62.8775 27.2498 62.4232 26.3393 61.7021 25.6771C60.9811 25.015 60.0456 24.6472 59.0748 24.6458C58.2279 24.6438 57.4026 24.9202 56.7229 25.4335C56.0424 25.9475 55.5429 26.6711 55.2991 27.4968H33.9031C33.4817 27.4968 33.0916 27.7257 32.8812 28.0975C32.6708 28.4693 32.6708 28.9272 32.8812 29.299C33.0916 29.6708 33.4817 29.8998 33.9031 29.8998H55.3305C55.6334 30.839 56.2666 31.6307 57.1083 32.1233C57.95 32.6159 58.9411 32.7734 59.8903 32.5665C60.8395 32.3596 61.6805 31.8022 62.2501 31.0025C62.8204 30.2028 63.0794 29.2156 62.9784 28.233H62.9791ZM60.2266 29.8577C59.9218 30.1701 59.5075 30.3464 59.0748 30.3484C58.6409 30.3504 58.2233 30.1768 57.9146 29.8651C57.6065 29.5534 57.4321 29.1302 57.4308 28.6876C57.4295 28.2457 57.6006 27.8205 57.9074 27.5068C58.2141 27.193 58.6304 27.0168 59.0643 27.0162C59.4983 27.0155 59.9152 27.1904 60.2233 27.5034C60.5307 27.8158 60.7031 28.2397 60.7031 28.6823C60.7031 29.1248 60.532 29.5454 60.2266 29.8571V29.8577Z"/><path fill="#000" d="M52.3257 42.973L52.3022 42.9169V36.5088C52.3022 36.1944 52.1796 35.8927 51.9613 35.6704C51.743 35.4481 51.4467 35.3233 51.1386 35.3233H33.9039C33.4824 35.3233 33.0924 35.5523 32.8819 35.9241C32.6715 36.2959 32.6715 36.7538 32.8819 37.1256C33.0924 37.4974 33.4824 37.7263 33.9039 37.7263H49.9666V43.1172C48.7722 43.5777 47.8683 44.5957 47.5372 45.8513C47.2062 47.1075 47.4881 48.4492 48.2957 49.4572C49.1032 50.4651 50.3369 51.0158 51.6119 50.9384C52.8869 50.8603 54.0471 50.1627 54.7302 49.064C55.4132 47.9653 55.5358 46.5989 55.0599 45.392C54.584 44.1852 53.5666 43.2854 52.3264 42.9736L52.3257 42.973ZM52.5257 48.0334C52.2202 48.3458 51.8059 48.522 51.3739 48.524C50.94 48.526 50.5224 48.3524 50.2137 48.0407C49.9056 47.729 49.7312 47.3051 49.7299 46.8632C49.7286 46.4207 49.8997 45.9961 50.2065 45.6824C50.5133 45.3687 50.9295 45.1924 51.3635 45.1918C51.7981 45.1911 52.2143 45.366 52.5224 45.6784C52.8298 45.9908 53.0022 46.4153 53.0022 46.8572C53.0022 47.2991 52.8311 47.7203 52.5257 48.0327V48.0334Z"/><path fill="#fff" d="M52.3257 42.973L52.3022 42.9169V36.5088C52.3022 36.1944 52.1796 35.8927 51.9613 35.6704C51.743 35.4481 51.4467 35.3233 51.1386 35.3233H33.9039C33.4824 35.3233 33.0924 35.5523 32.8819 35.9241C32.6715 36.2959 32.6715 36.7538 32.8819 37.1256C33.0924 37.4974 33.4824 37.7263 33.9039 37.7263H49.9666V43.1172C48.7722 43.5777 47.8683 44.5957 47.5372 45.8513C47.2062 47.1075 47.4881 48.4492 48.2957 49.4572C49.1032 50.4651 50.3369 51.0158 51.6119 50.9384C52.8869 50.8603 54.0471 50.1627 54.7302 49.064C55.4132 47.9653 55.5358 46.5989 55.0599 45.392C54.584 44.1852 53.5666 43.2854 52.3264 42.9736L52.3257 42.973ZM52.5257 48.0334C52.2202 48.3458 51.8059 48.522 51.3739 48.524C50.94 48.526 50.5224 48.3524 50.2137 48.0407C49.9056 47.729 49.7312 47.3051 49.7299 46.8632C49.7286 46.4207 49.8997 45.9961 50.2065 45.6824C50.5133 45.3687 50.9295 45.1924 51.3635 45.1918C51.7981 45.1911 52.2143 45.366 52.5224 45.6784C52.8298 45.9908 53.0022 46.4153 53.0022 46.8572C53.0022 47.2991 52.8311 47.7203 52.5257 48.0327V48.0334Z"/><path fill="#000" d="M40.9827 49.7496V44.7753C40.9807 44.4602 40.8562 44.1585 40.6366 43.9362C40.417 43.7139 40.12 43.5891 39.8106 43.5891H33.9031C33.4817 43.5891 33.0916 43.8181 32.8812 44.1899C32.6708 44.5617 32.6708 45.0196 32.8812 45.3914C33.0916 45.7632 33.4817 45.9921 33.9031 45.9921H38.6228V49.8931C37.4285 50.3537 36.5245 51.3716 36.1935 52.6272C35.8625 53.8835 36.1443 55.2252 36.9519 56.2331C37.7589 57.241 38.9932 57.7917 40.2682 57.7143C41.5431 57.6362 42.7034 56.9387 43.3864 55.8399C44.0695 54.7412 44.1921 53.3748 43.7162 52.168C43.2396 50.9611 42.2229 50.0613 40.9827 49.7496ZM41.1957 54.8133C40.8916 55.1184 40.4819 55.2906 40.0545 55.2926L40.0466 55.3246C39.6127 55.3246 39.1964 55.1491 38.8896 54.8367C38.5829 54.5243 38.4105 54.1004 38.4105 53.6585C38.4105 53.2166 38.5829 52.7927 38.8896 52.4804C39.1964 52.168 39.6127 51.9924 40.0466 51.9924C40.4806 51.9924 40.8968 52.168 41.2036 52.4804C41.5104 52.7927 41.6828 53.2166 41.6828 53.6585C41.6749 54.0931 41.4999 54.5076 41.1957 54.8133Z"/><path fill="#fff" d="M40.9827 49.7496V44.7753C40.9807 44.4602 40.8562 44.1585 40.6366 43.9362C40.417 43.7139 40.12 43.5891 39.8106 43.5891H33.9031C33.4817 43.5891 33.0916 43.8181 32.8812 44.1899C32.6708 44.5617 32.6708 45.0196 32.8812 45.3914C33.0916 45.7632 33.4817 45.9921 33.9031 45.9921H38.6228V49.8931C37.4285 50.3537 36.5245 51.3716 36.1935 52.6272C35.8625 53.8835 36.1443 55.2252 36.9519 56.2331C37.7589 57.241 38.9932 57.7917 40.2682 57.7143C41.5431 57.6362 42.7034 56.9387 43.3864 55.8399C44.0695 54.7412 44.1921 53.3748 43.7162 52.168C43.2396 50.9611 42.2229 50.0613 40.9827 49.7496ZM41.1957 54.8133C40.8916 55.1184 40.4819 55.2906 40.0545 55.2926L40.0466 55.3246C39.6127 55.3246 39.1964 55.1491 38.8896 54.8367C38.5829 54.5243 38.4105 54.1004 38.4105 53.6585C38.4105 53.2166 38.5829 52.7927 38.8896 52.4804C39.1964 52.168 39.6127 51.9924 40.0466 51.9924C40.4806 51.9924 40.8968 52.168 41.2036 52.4804C41.5104 52.7927 41.6828 53.2166 41.6828 53.6585C41.6749 54.0931 41.4999 54.5076 41.1957 54.8133Z"/><path fill="#000" d="M27.5631 55.597H1.18C0.758508 55.597 0.368478 55.8259 0.158059 56.1977C-0.0523607 56.5695 -0.0523607 57.0275 0.158059 57.3993C0.368478 57.7711 0.758508 58 1.18 58H27.5631C27.9846 58 28.3739 57.7711 28.585 57.3993C28.7954 57.0275 28.7954 56.5695 28.585 56.1977C28.3746 55.8259 27.9846 55.597 27.5631 55.597Z"/><path fill="#fff" d="M27.5631 55.597H1.18C0.758508 55.597 0.368478 55.8259 0.158059 56.1977C-0.0523607 56.5695 -0.0523607 57.0275 0.158059 57.3993C0.368478 57.7711 0.758508 58 1.18 58H27.5631C27.9846 58 28.3739 57.7711 28.585 57.3993C28.7954 57.0275 28.7954 56.5695 28.585 56.1977C28.3746 55.8259 27.9846 55.597 27.5631 55.597Z"/><path fill="#000" d="M27.2215 0C27.2038 0 27.1861 0 27.1684 0C24.3077 0.0754287 21.6188 1.25225 19.5972 3.31286C17.5749 5.37413 16.4212 8.11292 16.3491 11.0259C16.3491 11.0446 16.3491 11.0633 16.3491 11.082C16.4147 13.999 17.5658 16.7425 19.5893 18.8084C21.6129 20.8737 24.3051 22.0519 27.1697 22.1253C27.1795 22.1253 27.1887 22.1253 27.1985 22.1253C27.7911 22.1253 28.3483 21.891 28.7678 21.4665C29.188 21.0413 29.422 20.4752 29.4259 19.8718C29.4259 19.8691 29.4259 19.8664 29.4259 19.8638V2.26887C29.4259 1.66277 29.1939 1.09271 28.7737 0.664841C28.3581 0.241639 27.8075 0.0060076 27.2215 0ZM27.1316 19.787C24.895 19.7056 22.7967 18.7744 21.2137 17.1584C19.6142 15.5263 18.7024 13.3602 18.6434 11.0566C18.707 8.75574 19.6214 6.59367 21.2202 4.96428C22.802 3.35224 24.8983 2.42173 27.1323 2.33829V19.787H27.1316Z"/><path fill="#fff" d="M27.2215 0C27.2038 0 27.1861 0 27.1684 0C24.3077 0.0754287 21.6188 1.25225 19.5972 3.31286C17.5749 5.37413 16.4212 8.11292 16.3491 11.0259C16.3491 11.0446 16.3491 11.0633 16.3491 11.082C16.4147 13.999 17.5658 16.7425 19.5893 18.8084C21.6129 20.8737 24.3051 22.0519 27.1697 22.1253C27.1795 22.1253 27.1887 22.1253 27.1985 22.1253C27.7911 22.1253 28.3483 21.891 28.7678 21.4665C29.188 21.0413 29.422 20.4752 29.4259 19.8718C29.4259 19.8691 29.4259 19.8664 29.4259 19.8638V2.26887C29.4259 1.66277 29.1939 1.09271 28.7737 0.664841C28.3581 0.241639 27.8075 0.0060076 27.2215 0ZM27.1316 19.787C24.895 19.7056 22.7967 18.7744 21.2137 17.1584C19.6142 15.5263 18.7024 13.3602 18.6434 11.0566C18.707 8.75574 19.6214 6.59367 21.2202 4.96428C22.802 3.35224 24.8983 2.42173 27.1323 2.33829V19.787H27.1316Z"/><path fill="#000" d="M27.1527 23.4176C27.1435 23.4176 27.135 23.4176 27.1258 23.4176H11.8812C4.94458 23.4176 4.5539 28.0528 4.40641 29.7977L4.40313 29.8337C4.40051 29.8671 4.3992 29.9005 4.3992 29.9338V30.2623C3.90691 35.2926 0.480542 50.0586 0.359928 50.5733C0.18425 51.2528 0.313386 51.9697 0.715216 52.5411C0.725704 52.5558 0.735536 52.5698 0.74668 52.5838C1.17735 53.1398 1.84663 53.4703 2.54147 53.4703C2.54672 53.4703 2.55131 53.4703 2.55655 53.4703H9.81504C9.82028 53.4703 9.82618 53.4703 9.83143 53.4703C10.3558 53.4629 10.8671 53.27 11.2703 52.9282C11.6734 52.5865 11.952 52.1092 12.0543 51.5845C12.0602 51.5552 12.0648 51.5265 12.068 51.4971C12.1369 51.0599 12.873 47.1536 13.657 43.1385V51.1366C13.657 51.142 13.657 51.1467 13.657 51.152C13.6649 51.7714 13.9205 52.3742 14.3577 52.8041C14.7917 53.232 15.3876 53.4703 15.9893 53.4629H27.1258C27.7374 53.4629 28.3129 53.2213 28.7462 52.7827C29.1802 52.3442 29.4214 51.7594 29.4254 51.1366C29.4254 51.134 29.4254 51.1313 29.4254 51.1286V25.7586C29.4254 25.1324 29.1861 24.5444 28.7521 24.1031C28.3241 23.6672 27.7571 23.4236 27.1527 23.4169V23.4176ZM27.1258 51.126H15.9808C15.9729 51.126 15.9585 51.1186 15.9526 51.1206V33.6666C15.9526 33.238 15.7225 32.8442 15.3528 32.6399C15.2138 32.5632 15.0677 32.4977 14.9182 32.445C14.3872 32.2574 13.8012 32.4897 13.5338 32.993C13.4341 33.1806 13.3555 33.3789 13.3004 33.5831C13.3004 33.5851 13.2997 33.5865 13.2991 33.5885C12.951 34.8541 12.0222 39.5206 11.3044 43.2126C10.953 45.0182 10.5715 47.0081 10.2582 48.6709C9.95139 50.2956 9.84323 50.8837 9.80521 51.134H2.58736C2.72436 50.5519 6.20054 35.573 6.68825 30.4318C6.69152 30.3944 6.69349 30.357 6.69349 30.3197V29.9839C6.7597 29.1969 6.85343 28.1255 7.47683 27.2918C8.23984 26.2719 9.7213 25.7546 11.8812 25.7546H27.0203C27.057 25.7579 27.0937 25.7599 27.1311 25.7599L27.1258 51.1266V51.126Z"/><path fill="#fff" d="M27.1527 23.4176C27.1435 23.4176 27.135 23.4176 27.1258 23.4176H11.8812C4.94458 23.4176 4.5539 28.0528 4.40641 29.7977L4.40313 29.8337C4.40051 29.8671 4.3992 29.9005 4.3992 29.9338V30.2623C3.90691 35.2926 0.480542 50.0586 0.359928 50.5733C0.18425 51.2528 0.313386 51.9697 0.715216 52.5411C0.725704 52.5558 0.735536 52.5698 0.74668 52.5838C1.17735 53.1398 1.84663 53.4703 2.54147 53.4703C2.54672 53.4703 2.55131 53.4703 2.55655 53.4703H9.81504C9.82028 53.4703 9.82618 53.4703 9.83143 53.4703C10.3558 53.4629 10.8671 53.27 11.2703 52.9282C11.6734 52.5865 11.952 52.1092 12.0543 51.5845C12.0602 51.5552 12.0648 51.5265 12.068 51.4971C12.1369 51.0599 12.873 47.1536 13.657 43.1385V51.1366C13.657 51.142 13.657 51.1467 13.657 51.152C13.6649 51.7714 13.9205 52.3742 14.3577 52.8041C14.7917 53.232 15.3876 53.4703 15.9893 53.4629H27.1258C27.7374 53.4629 28.3129 53.2213 28.7462 52.7827C29.1802 52.3442 29.4214 51.7594 29.4254 51.1366C29.4254 51.134 29.4254 51.1313 29.4254 51.1286V25.7586C29.4254 25.1324 29.1861 24.5444 28.7521 24.1031C28.3241 23.6672 27.7571 23.4236 27.1527 23.4169V23.4176ZM27.1258 51.126H15.9808C15.9729 51.126 15.9585 51.1186 15.9526 51.1206V33.6666C15.9526 33.238 15.7225 32.8442 15.3528 32.6399C15.2138 32.5632 15.0677 32.4977 14.9182 32.445C14.3872 32.2574 13.8012 32.4897 13.5338 32.993C13.4341 33.1806 13.3555 33.3789 13.3004 33.5831C13.3004 33.5851 13.2997 33.5865 13.2991 33.5885C12.951 34.8541 12.0222 39.5206 11.3044 43.2126C10.953 45.0182 10.5715 47.0081 10.2582 48.6709C9.95139 50.2956 9.84323 50.8837 9.80521 51.134H2.58736C2.72436 50.5519 6.20054 35.573 6.68825 30.4318C6.69152 30.3944 6.69349 30.357 6.69349 30.3197V29.9839C6.7597 29.1969 6.85343 28.1255 7.47683 27.2918C8.23984 26.2719 9.7213 25.7546 11.8812 25.7546H27.0203C27.057 25.7579 27.0937 25.7599 27.1311 25.7599L27.1258 51.1266V51.126Z"/></g><defs><clipPath id="clip0_10_32"><rect width="63" height="58" fill="#fff"/></clipPath></defs></svg>