<svg width="51" height="69" viewBox="0 0 51 69" fill="none" xmlns="http://www.w3.org/2000/svg">
<g clip-path="url(#clip0_303_13)">
<path d="M14.0254 29.5572H39.2142C43.4619 29.5572 46.9189 26.0212 46.9189 21.6762C46.9189 19.5725 46.1189 17.5934 44.6618 16.1038C43.4235 14.8362 41.8355 14.0554 40.1222 13.8485C39.9217 12.095 39.1566 10.4716 37.9173 9.20487C36.4803 7.73688 34.5775 6.91863 32.5521 6.89897C30.8277 2.74311 26.8161 0 22.3552 0C16.503 0 11.6961 4.66797 11.3034 10.553C7.33853 11.7673 4.53418 15.5608 4.53418 19.8524C4.53418 20.2101 4.5534 20.5724 4.59184 20.9244C5.12086 25.8461 9.17454 29.5572 14.0217 29.5572H14.0263H14.0254ZM12.442 12.2841L13.2035 12.1184V11.3217C13.2072 6.16217 17.3121 1.96512 22.3561 1.96512C26.2404 1.96512 29.7129 4.48166 30.9961 8.2284L31.2423 8.94647L31.9828 8.88375C32.1484 8.8697 32.3132 8.86221 32.4715 8.86221C34.0137 8.86221 35.4672 9.47824 36.5591 10.5942C37.65 11.7102 38.2523 13.196 38.2523 14.7753V15.7593H39.2142C40.7592 15.7593 42.2117 16.3735 43.3018 17.4913C44.3946 18.6092 44.995 20.0949 44.995 21.6724C44.995 24.9333 42.4021 27.5856 39.2142 27.5856H14.0254C10.1603 27.5856 6.92849 24.6281 6.50748 20.7044C6.47636 20.4207 6.46171 20.1342 6.46171 19.8487C6.46171 16.2181 8.97776 13.0359 12.4429 12.2803V12.2841H12.442Z" fill="white"/>
<path d="M50.9973 51.2343C50.9973 50.8111 50.7337 50.4348 50.3438 50.2999L40.8635 47.0297L50.3401 43.7989C50.7328 43.665 50.9982 43.2914 50.9982 42.8683C50.9982 42.4451 50.7346 42.0687 50.3447 41.9339L25.8057 33.4724C25.6053 33.4041 25.3902 33.4041 25.1925 33.4724L0.654419 41.933C0.261773 42.0687 -0.00182104 42.4442 0.000924732 42.8673C0.000924732 43.2905 0.26635 43.6668 0.658995 43.7979L10.1356 47.0288L0.655334 50.299C0.262688 50.4348 -0.000905784 50.8102 0.00183999 51.2333C0.00183999 51.6565 0.267265 52.0301 0.65991 52.1639L10.207 55.4201L0.655334 58.7137C0.261773 58.8513 -0.00182104 59.2277 9.47375e-06 59.6509C9.47375e-06 60.074 0.265434 60.4476 0.65808 60.5815L25.1952 68.9484C25.2932 68.9821 25.3975 68.9999 25.4991 68.9999C25.6007 68.9999 25.705 68.9821 25.803 68.9484L50.3419 60.5815C50.7346 60.4476 51 60.0712 51 59.6509C51 59.2305 50.7364 58.8513 50.3465 58.7165L40.7949 55.4229L50.3419 52.1667C50.7346 52.0329 51 51.6565 51 51.2362H50.9982L50.9973 51.2343ZM25.4963 35.4431L47.0095 42.8617L37.5393 46.0907H37.5311L25.4963 50.1951L24.6809 49.918L13.4616 46.0926H13.4561L3.98321 42.8617L25.4945 35.4431H25.4963ZM37.7645 56.4546L47.0104 59.6424L25.4973 66.9767L3.98596 59.6424L13.2319 56.4546L25.1934 60.5337C25.2913 60.5674 25.3957 60.5852 25.4973 60.5852C25.5989 60.5852 25.7032 60.5674 25.8011 60.5337L37.7645 56.4546ZM25.4963 58.5639L13.533 54.4848L3.98596 51.2287L13.1605 48.0643L22.8485 51.3682L25.1934 52.1677C25.3911 52.2342 25.6053 52.2342 25.8011 52.1677L25.8707 52.1443L37.834 48.0652L47.0086 51.2296L25.4954 58.5648H25.4963V58.5639Z" fill="white"/>
</g>
<defs>
<clipPath id="clip0_303_13">
<rect width="51" height="69" fill="white"/>
</clipPath>
</defs>
</svg>
