<svg width="65" height="67" viewBox="0 0 65 67" fill="none" xmlns="http://www.w3.org/2000/svg">
<path d="M28.1614 51.1309H36.0983C37.5152 51.1309 38.6676 49.9714 38.6676 48.5458V40.5604C38.6676 39.1348 37.5152 37.9754 36.0983 37.9754H28.1614C26.7444 37.9754 25.592 39.1348 25.592 40.5604V48.5458C25.592 49.9714 26.7444 51.1309 28.1614 51.1309ZM27.6104 48.5458V40.5604C27.6104 40.2548 27.8576 40.0061 28.1614 40.0061H36.0983C36.402 40.0061 36.6493 40.2548 36.6493 40.5604V48.5458C36.6493 48.8514 36.402 49.1002 36.0983 49.1002H28.1614C27.8576 49.1002 27.6104 48.8514 27.6104 48.5458Z" fill="white"/>
<path d="M58.7398 62.9687H42.8304V57.2387C44.0662 56.8108 44.9083 55.639 44.9083 54.3046V44.2921H50.257C56.3344 44.2655 61.2705 39.2828 61.2705 33.1621C61.2705 27.0415 56.3079 22.0322 50.2082 22.0322C50.1466 22.0322 50.0856 22.0322 50.025 22.0322C50.402 20.7489 50.5928 19.4119 50.5928 18.0508C50.5938 10.3034 44.3288 4 36.6279 4C33.2848 4 30.052 5.20652 27.5254 7.39739C25.3117 9.31594 23.7376 11.9204 23.0675 14.7609C22.3476 14.6129 21.6074 14.5377 20.8625 14.5377C18.3227 14.5377 15.8439 15.4222 13.8841 17.028C12.11 18.4725 10.8045 20.4812 10.195 22.6982C8.09529 23.4834 6.30948 24.8624 5.02381 26.6945C3.7015 28.5777 3.00244 30.8049 3.00244 33.1345C3.00244 39.2715 7.96504 44.2644 14.0648 44.2644H19.3372V54.2907C19.3372 55.6861 20.2637 56.9044 21.5763 57.2853V62.9687H5.6669C5.10114 62.9687 4.658 63.4146 4.658 63.9838C4.658 64.553 5.10114 64.9989 5.6669 64.9989H22.5852C23.1418 64.9989 23.5941 64.5438 23.5941 63.9843V57.4076H26.3512V61.3783C26.3512 61.9475 26.7943 62.3934 27.3601 62.3934C27.9258 62.3934 28.369 61.9286 28.369 61.3783V57.4076H31.1271V63.9838C31.1271 64.553 31.5702 64.9989 32.136 64.9989C32.7017 64.9989 33.1449 64.5433 33.1449 63.9838V57.4076H35.9029V61.3783C35.9029 61.9475 36.3461 62.3934 36.9118 62.3934C37.4776 62.3934 37.9207 61.9286 37.9207 61.3783V57.4076H40.8121V63.9838C40.8121 64.553 41.2553 64.9989 41.821 64.9989H59.2486L59.1993 64.8868C59.2898 64.8397 59.3738 64.7788 59.4486 64.7045C59.6424 64.5126 59.7487 64.2561 59.7487 63.9833C59.7487 63.4141 59.3056 62.9682 58.7398 62.9682V62.9687ZM13.7717 38.0076C13.7717 37.5741 14.1222 37.2209 14.5537 37.2209C14.9851 37.2209 15.3291 37.5674 15.3352 37.9949V38.0169C15.3301 38.4458 14.9811 38.7939 14.5537 38.7939C14.1263 38.7939 13.7717 38.4412 13.7717 38.0071V38.0076ZM11.7534 38.0076C11.7534 39.5612 13.0096 40.8251 14.5537 40.8251C15.7122 40.8251 16.7521 40.0956 17.1652 39.0232H19.3377V42.2348H14.0383C9.05128 42.2348 4.99379 38.1525 4.99379 33.135C4.99379 29.1423 7.53411 25.6548 11.3153 24.457L11.326 24.4534C11.6771 24.3285 11.9228 24.0562 12.0001 23.7061C12.9047 19.5782 16.6203 16.5822 20.835 16.5822C21.7676 16.5822 22.6681 16.7188 23.5112 16.9881C23.7971 17.0889 24.1044 17.05 24.3563 16.8811C24.602 16.7163 24.7724 16.4516 24.8116 16.1778C25.7228 10.2901 30.687 6.01683 36.6142 6.01683C43.2023 6.01683 48.5618 11.409 48.5618 18.0374C48.5618 19.6606 48.2372 21.2521 47.5961 22.7703C47.4577 23.1082 47.5132 23.5121 47.7386 23.8013C47.9762 24.1002 48.3364 24.2425 48.7012 24.1811C49.1769 24.1038 49.6933 24.0629 50.195 24.0629C55.182 24.0629 59.2395 28.1451 59.2395 33.1627C59.2395 38.1802 55.182 42.2624 50.195 42.2624H44.9088V39.0232H49.4847C49.8999 40.0956 50.9393 40.8251 52.0947 40.8251C53.6389 40.8251 54.895 39.5612 54.895 38.0076C54.895 36.4541 53.6389 35.1907 52.0947 35.1907C50.9393 35.1907 49.8999 35.9202 49.4847 36.9931H48.8492L50.5928 33.8496H52.6457C53.0609 34.9225 54.1003 35.652 55.2557 35.652C56.7999 35.652 58.056 34.3881 58.056 32.8345C58.056 31.281 56.7999 30.0171 55.2557 30.0171C54.1008 30.0171 53.0614 30.7465 52.6462 31.8184H49.992C49.6211 31.8184 49.2903 32.0145 49.1062 32.3441L46.5343 36.9921H44.9093V34.7981C44.9093 33.0792 43.5254 31.6807 41.8246 31.6807H37.8546V25.6594H41.9686C42.3837 26.7318 43.4231 27.4613 44.5786 27.4613C46.1227 27.4613 47.3789 26.1974 47.3789 24.6438C47.3789 23.0903 46.1227 21.8264 44.5786 21.8264C43.4231 21.8264 42.3837 22.5559 41.9686 23.6288H36.8452C36.2794 23.6288 35.8363 24.0746 35.8363 24.6438V31.6807H34.137V24.2686C35.2034 23.854 35.9279 22.8072 35.9279 21.6406C35.9279 20.087 34.6717 18.8232 33.1276 18.8232C31.5834 18.8232 30.3278 20.087 30.3278 21.6406C30.3278 22.8026 31.0528 23.8489 32.1187 24.2666V31.6807H30.9617V27.0738C30.9617 26.5046 30.5186 26.0587 29.9528 26.0587H20.1894C19.7742 24.9858 18.7348 24.2563 17.5794 24.2563C16.0352 24.2563 14.7791 25.5202 14.7791 27.0738C14.7791 28.6273 16.0352 29.8912 17.5794 29.8912C18.7379 29.8912 19.7778 29.1618 20.1904 28.0893H28.9434V31.6813H22.4356C20.7272 31.6813 19.3372 33.0797 19.3372 34.7986V36.9926H17.1632C16.748 35.9197 15.7086 35.1902 14.5532 35.1902C13.009 35.1902 11.7529 36.4541 11.7529 38.0071L11.7534 38.0076ZM51.3127 38.0076C51.3127 37.5741 51.6633 37.2209 52.0947 37.2209C52.5262 37.2209 52.8767 37.5736 52.8767 38.0076C52.8767 38.4417 52.5262 38.7944 52.0947 38.7944C51.6633 38.7944 51.3127 38.4417 51.3127 38.0076ZM54.4814 32.7265C54.5348 32.3431 54.8686 32.0478 55.2557 32.0478C55.6867 32.0478 56.0377 32.4005 56.0377 32.8345C56.0377 33.2686 55.6872 33.6213 55.2557 33.6213C54.8681 33.6213 54.5343 33.3254 54.4814 32.942C54.4855 32.9047 54.4875 32.8688 54.4875 32.834C54.4875 32.7992 54.4855 32.7644 54.4814 32.727V32.7265ZM33.909 21.6411C33.909 22.0307 33.6155 22.3665 33.2344 22.4202C33.1973 22.4161 33.1616 22.4141 33.1276 22.4141C33.0935 22.4141 33.0579 22.4161 33.0207 22.4202C32.6396 22.3665 32.3461 22.0307 32.3461 21.6411C32.3461 21.2076 32.6966 20.8544 33.1281 20.8544C33.5595 20.8544 33.9101 21.207 33.9101 21.6411H33.909ZM43.7961 24.6582C43.7961 24.2246 44.1466 23.8714 44.5781 23.8714C45.0095 23.8714 45.3601 24.2241 45.3601 24.6582C45.3601 25.0923 45.0095 25.4449 44.5781 25.4449C44.1466 25.4449 43.7961 25.0923 43.7961 24.6582ZM18.3609 27.0686V27.0784C18.3583 27.5099 18.0088 27.8605 17.5789 27.8605C17.149 27.8605 16.7969 27.5078 16.7969 27.0738C16.7969 26.6397 17.1474 26.287 17.5789 26.287C18.0103 26.287 18.3578 26.6371 18.3609 27.0681V27.0686ZM21.3555 38.1735C21.3647 38.1187 21.3692 38.0629 21.3692 38.0082C21.3692 37.9519 21.3647 37.895 21.3555 37.8398V34.7991C21.3555 34.1997 21.8404 33.7124 22.4356 33.7124H29.3351L29.3341 33.714H29.9523C29.967 33.714 29.9818 33.7134 29.996 33.7124H33.0864C33.1123 33.714 33.1352 33.7145 33.1672 33.7124L36.8442 33.714C36.8584 33.714 36.8727 33.7134 36.8869 33.7124H41.8236C42.4117 33.7124 42.8899 34.2002 42.8899 34.7991V54.3056C42.8899 54.8728 42.4799 55.3319 41.9314 55.3867C41.8363 55.3759 41.7523 55.3785 41.6633 55.3923H32.2937C32.1879 55.3759 32.0841 55.3759 31.9782 55.3923H22.7389C22.6351 55.3764 22.5343 55.3764 22.4306 55.3923C21.8368 55.3898 21.355 54.903 21.355 54.3056V38.174L21.3555 38.1735Z" fill="white"/>
</svg>
