<svg xmlns="http://www.w3.org/2000/svg" width="92" height="104" fill="none" viewBox="0 0 92 104"><path fill="#12121A" stroke="#E6E6F2" stroke-width=".5" d="M89.75 31.1361L89.75 72.8647C89.75 75.9592 88.1155 78.8236 85.4513 80.3979L50.4509 101.079C47.7051 102.702 44.294 102.702 41.5483 101.079L6.54865 80.3979C3.8845 78.8236 2.25 75.9592 2.25 72.8647L2.25001 31.136C2.25001 28.0416 3.88446 25.1772 6.54854 23.603L41.5482 2.92084C44.294 1.29826 47.7052 1.29825 50.451 2.92081L85.4514 23.603C88.1155 25.1773 89.75 28.0416 89.75 31.1361Z"/><g filter="url(#filter0_f_694_530)"><rect width="36" height="26" x="28" y="40" fill="url(#paint0_linear_694_530)"/></g><rect width="82" height="24" x="5" y="51" fill="#12121A"/><path fill="#fff" d="M37.4227 67.1C36.8693 67.1 36.356 67.03 35.8827 66.89C35.4093 66.7433 35.0093 66.5467 34.6827 66.3L35.0727 65.29C35.3993 65.5233 35.756 65.7033 36.1427 65.83C36.536 65.9567 36.9627 66.02 37.4227 66.02C37.9493 66.02 38.3327 65.9333 38.5727 65.76C38.8127 65.58 38.9327 65.35 38.9327 65.07C38.9327 64.8367 38.846 64.6533 38.6727 64.52C38.506 64.3867 38.216 64.2767 37.8027 64.19L36.7027 63.96C35.4493 63.6933 34.8227 63.05 34.8227 62.03C34.8227 61.59 34.9393 61.2067 35.1727 60.88C35.406 60.5533 35.7293 60.3 36.1427 60.12C36.556 59.94 37.0327 59.85 37.5727 59.85C38.0527 59.85 38.5027 59.9233 38.9227 60.07C39.3427 60.21 39.6927 60.41 39.9727 60.67L39.5827 61.63C39.0293 61.1633 38.356 60.93 37.5627 60.93C37.1027 60.93 36.7427 61.0267 36.4827 61.22C36.2227 61.4133 36.0927 61.6667 36.0927 61.98C36.0927 62.22 36.1727 62.4133 36.3327 62.56C36.4927 62.7 36.766 62.81 37.1527 62.89L38.2427 63.12C38.9027 63.26 39.3927 63.48 39.7127 63.78C40.0393 64.08 40.2027 64.48 40.2027 64.98C40.2027 65.4 40.0893 65.77 39.8627 66.09C39.636 66.41 39.3127 66.66 38.8927 66.84C38.4793 67.0133 37.9893 67.1 37.4227 67.1ZM42.7913 67.1C42.4379 67.1 42.1213 67.0333 41.8413 66.9C41.5679 66.76 41.3513 66.5733 41.1912 66.34C41.0379 66.1067 40.9613 65.8433 40.9613 65.55C40.9613 65.19 41.0546 64.9067 41.2413 64.7C41.4279 64.4867 41.7313 64.3333 42.1513 64.24C42.5713 64.1467 43.1346 64.1 43.8413 64.1H44.1913V63.89C44.1913 63.5567 44.1179 63.3167 43.9713 63.17C43.8246 63.0233 43.5779 62.95 43.2313 62.95C42.9579 62.95 42.6779 62.9933 42.3913 63.08C42.1046 63.16 41.8146 63.2867 41.5213 63.46L41.1613 62.61C41.3346 62.49 41.5379 62.3867 41.7713 62.3C42.0113 62.2067 42.2613 62.1367 42.5213 62.09C42.7879 62.0367 43.0379 62.01 43.2713 62.01C43.9846 62.01 44.5146 62.1767 44.8613 62.51C45.2079 62.8367 45.3813 63.3467 45.3813 64.04V67H44.2113V66.22C44.0979 66.4933 43.9179 66.71 43.6713 66.87C43.4246 67.0233 43.1313 67.1 42.7913 67.1ZM43.0513 66.24C43.3779 66.24 43.6479 66.1267 43.8613 65.9C44.0813 65.6733 44.1913 65.3867 44.1913 65.04V64.82H43.8513C43.2246 64.82 42.7879 64.87 42.5413 64.97C42.3013 65.0633 42.1813 65.2367 42.1813 65.49C42.1813 65.71 42.2579 65.89 42.4113 66.03C42.5646 66.17 42.7779 66.24 43.0513 66.24ZM48.26 67.1C47.9067 67.1 47.59 67.0333 47.31 66.9C47.0367 66.76 46.82 66.5733 46.66 66.34C46.5067 66.1067 46.43 65.8433 46.43 65.55C46.43 65.19 46.5233 64.9067 46.71 64.7C46.8967 64.4867 47.2 64.3333 47.62 64.24C48.04 64.1467 48.6033 64.1 49.31 64.1H49.66V63.89C49.66 63.5567 49.5867 63.3167 49.44 63.17C49.2933 63.0233 49.0467 62.95 48.7 62.95C48.4267 62.95 48.1467 62.9933 47.86 63.08C47.5733 63.16 47.2833 63.2867 46.99 63.46L46.63 62.61C46.8033 62.49 47.0067 62.3867 47.24 62.3C47.48 62.2067 47.73 62.1367 47.99 62.09C48.2567 62.0367 48.5067 62.01 48.74 62.01C49.4533 62.01 49.9833 62.1767 50.33 62.51C50.6767 62.8367 50.85 63.3467 50.85 64.04V67H49.68V66.22C49.5667 66.4933 49.3867 66.71 49.14 66.87C48.8933 67.0233 48.6 67.1 48.26 67.1ZM48.52 66.24C48.8467 66.24 49.1167 66.1267 49.33 65.9C49.55 65.6733 49.66 65.3867 49.66 65.04V64.82H49.32C48.6933 64.82 48.2567 64.87 48.01 64.97C47.77 65.0633 47.65 65.2367 47.65 65.49C47.65 65.71 47.7267 65.89 47.88 66.03C48.0333 66.17 48.2467 66.24 48.52 66.24ZM54.6688 67.1C54.1154 67.1 53.6021 67.03 53.1288 66.89C52.6554 66.7433 52.2554 66.5467 51.9288 66.3L52.3188 65.29C52.6454 65.5233 53.0021 65.7033 53.3888 65.83C53.7821 65.9567 54.2088 66.02 54.6688 66.02C55.1954 66.02 55.5788 65.9333 55.8188 65.76C56.0588 65.58 56.1788 65.35 56.1788 65.07C56.1788 64.8367 56.0921 64.6533 55.9188 64.52C55.7521 64.3867 55.4621 64.2767 55.0488 64.19L53.9488 63.96C52.6954 63.6933 52.0688 63.05 52.0688 62.03C52.0688 61.59 52.1854 61.2067 52.4188 60.88C52.6521 60.5533 52.9754 60.3 53.3888 60.12C53.8021 59.94 54.2788 59.85 54.8188 59.85C55.2988 59.85 55.7488 59.9233 56.1688 60.07C56.5888 60.21 56.9388 60.41 57.2188 60.67L56.8288 61.63C56.2754 61.1633 55.6021 60.93 54.8088 60.93C54.3488 60.93 53.9888 61.0267 53.7288 61.22C53.4688 61.4133 53.3388 61.6667 53.3388 61.98C53.3388 62.22 53.4188 62.4133 53.5788 62.56C53.7388 62.7 54.0121 62.81 54.3988 62.89L55.4888 63.12C56.1488 63.26 56.6388 63.48 56.9588 63.78C57.2854 64.08 57.4488 64.48 57.4488 64.98C57.4488 65.4 57.3354 65.77 57.1088 66.09C56.8821 66.41 56.5588 66.66 56.1388 66.84C55.7254 67.0133 55.2354 67.1 54.6688 67.1Z"/><g filter="url(#filter1_d_694_530)"><path fill="#12121A" d="M45.8132 85.0486C45.9862 84.6968 46.4877 84.6968 46.6607 85.0486L47.8421 87.4508L50.4876 87.8367C50.8744 87.8931 51.0291 88.3681 50.7497 88.6415L48.8343 90.5156L49.2859 93.1599C49.3519 93.5458 48.9464 93.8398 48.6001 93.6571L46.2369 92.4104L43.8737 93.6571C43.5274 93.8398 43.122 93.5458 43.1879 93.1599L43.6396 90.5156L41.7241 88.6415C41.4447 88.3681 41.5995 87.8931 41.9863 87.8367L44.6318 87.4508L45.8132 85.0486Z"/><path fill="#12121A" fill-rule="evenodd" d="M45.4529 84.8714C45.773 84.2206 46.7008 84.2206 47.0209 84.8714L48.109 87.0841L50.5455 87.4395C51.2611 87.5438 51.5473 88.4227 51.0304 88.9284L49.2654 90.6554L49.6816 93.0923C49.8036 93.8063 49.0535 94.3501 48.4128 94.0121L46.2369 92.8643L44.061 94.0121C43.4203 94.3501 42.6702 93.8063 42.7922 93.0923L43.2085 90.6554L41.4434 88.9284C40.9265 88.4227 41.2128 87.5438 41.9283 87.4395L44.3648 87.0841L45.4529 84.8714ZM46.3005 85.2257C46.2745 85.1729 46.1993 85.173 46.1734 85.2257L44.992 87.628C44.9336 87.7467 44.8206 87.829 44.6897 87.848L42.0442 88.2339C41.9862 88.2423 41.963 88.3136 42.0049 88.3546L43.9203 90.2287C44.0145 90.3209 44.0575 90.4534 44.0353 90.5832L43.5836 93.2275C43.5737 93.2853 43.6345 93.3294 43.6864 93.302L46.0496 92.0554C46.1668 91.9936 46.307 91.9936 46.4242 92.0554L48.7874 93.302C48.8394 93.3294 48.9002 93.2853 48.8903 93.2275L48.4386 90.5832C48.4164 90.4534 48.4594 90.3209 48.5535 90.2287L50.469 88.3546C50.5109 88.3136 50.4877 88.2423 50.4297 88.2339L47.7841 87.848C47.6533 87.829 47.5402 87.7467 47.4819 87.628L46.3005 85.2257Z" clip-rule="evenodd"/></g><g filter="url(#filter2_d_694_530)"><path fill="#12121A" d="M38.7241 81.3871C38.8106 81.2112 39.0614 81.2112 39.1479 81.3871L39.7386 82.5882L41.0614 82.7811C41.2548 82.8093 41.3321 83.0469 41.1924 83.1836L40.2347 84.1206L40.4605 85.4427C40.4935 85.6357 40.2908 85.7827 40.1176 85.6913L38.936 85.068L37.7544 85.6913C37.5813 85.7827 37.3785 85.6357 37.4115 85.4427L37.6374 84.1206L36.6796 83.1836C36.5399 83.0469 36.6173 82.8093 36.8107 82.7811L38.1335 82.5882L38.7241 81.3871Z"/><path fill="#12121A" fill-rule="evenodd" d="M38.544 81.2985C38.7041 80.9731 39.168 80.9731 39.328 81.2985L39.8721 82.4049L41.0903 82.5825C41.4481 82.6347 41.5912 83.0741 41.3328 83.327L40.4502 84.1905L40.6584 85.4089C40.7194 85.766 40.3443 86.0378 40.024 85.8689L38.936 85.2949L37.8481 85.8689C37.5277 86.0378 37.1527 85.766 37.2137 85.4089L37.4218 84.1905L36.5393 83.327C36.2808 83.0741 36.4239 82.6347 36.7817 82.5825L38 82.4049L38.544 81.2985ZM38.9678 81.4757C38.9548 81.4493 38.9172 81.4493 38.9042 81.4757L38.3136 82.6768C38.2844 82.7361 38.2278 82.7773 38.1624 82.7868L36.8397 82.9797C36.8106 82.984 36.799 83.0196 36.82 83.0401L37.7777 83.9772C37.8248 84.0232 37.8463 84.0895 37.8352 84.1544L37.6094 85.4765C37.6044 85.5055 37.6348 85.5275 37.6608 85.5138L38.8424 84.8905C38.901 84.8596 38.9711 84.8596 39.0297 84.8905L40.2113 85.5138C40.2372 85.5275 40.2676 85.5055 40.2627 85.4765L40.0369 84.1544C40.0258 84.0895 40.0472 84.0232 40.0943 83.9772L41.0521 83.0401C41.073 83.0196 41.0614 82.984 41.0324 82.9797L39.7096 82.7868C39.6442 82.7773 39.5877 82.7361 39.5585 82.6768L38.9678 81.4757Z" clip-rule="evenodd"/></g><g filter="url(#filter3_d_694_530)"><path fill="#12121A" d="M52.9546 81.3871C53.0411 81.2112 53.2919 81.2112 53.3784 81.3871L53.9691 82.5882L55.2918 82.7811C55.4852 82.8093 55.5626 83.0469 55.4229 83.1836L54.4652 84.1206L54.691 85.4427C54.724 85.6357 54.5213 85.7827 54.3481 85.6913L53.1665 85.068L51.9849 85.6913C51.8117 85.7827 51.609 85.6357 51.642 85.4427L51.8678 84.1206L50.9101 83.1836C50.7704 83.0469 50.8478 82.8093 51.0412 82.7811L52.3639 82.5882L52.9546 81.3871Z"/><path fill="#12121A" fill-rule="evenodd" d="M52.7745 81.2985C52.9345 80.9731 53.3985 80.9731 53.5585 81.2985L54.1026 82.4049L55.3208 82.5825C55.6786 82.6347 55.8217 83.0741 55.5632 83.327L54.6807 84.1905L54.8888 85.4089C54.9498 85.766 54.5748 86.0378 54.2544 85.8689L53.1665 85.2949L52.0785 85.8689C51.7582 86.0378 51.3832 85.766 51.4441 85.4089L51.6523 84.1905L50.7697 83.327C50.5113 83.0741 50.6544 82.6347 51.0122 82.5825L52.2304 82.4049L52.7745 81.2985ZM53.1983 81.4757C53.1853 81.4493 53.1477 81.4493 53.1347 81.4757L52.544 82.6768C52.5148 82.7361 52.4583 82.7773 52.3929 82.7868L51.0701 82.9797C51.0411 82.984 51.0295 83.0196 51.0505 83.0401L52.0082 83.9772C52.0553 84.0232 52.0768 84.0895 52.0657 84.1544L51.8398 85.4765C51.8349 85.5055 51.8653 85.5275 51.8913 85.5138L53.0729 84.8905C53.1315 84.8596 53.2015 84.8596 53.2601 84.8905L54.4417 85.5138C54.4677 85.5275 54.4981 85.5055 54.4932 85.4765L54.2673 84.1544C54.2562 84.0895 54.2777 84.0232 54.3248 83.9772L55.2825 83.0401C55.3035 83.0196 55.2919 82.984 55.2629 82.9797L53.9401 82.7868C53.8747 82.7773 53.8181 82.7361 53.789 82.6768L53.1983 81.4757Z" clip-rule="evenodd"/></g><path fill="#fff" d="M23.3008 31.1111C22.2956 30.9859 22.2137 30.815 22.2137 30.621C22.2137 30.4559 22.3205 30.1789 23.036 30.1789C23.8543 30.1789 24.0303 30.4881 24.0912 30.7207L24.1022 30.7627H25.1644L25.1583 30.7028C25.1281 30.4059 24.89 29.438 23.0873 29.438C21.6532 29.438 21.1441 30.1178 21.1441 30.7C21.1441 31.4086 21.7252 31.7953 23.0286 31.9537C24.1428 32.0789 24.2349 32.2941 24.2349 32.5225C24.2349 32.8577 23.9064 33.0279 23.2583 33.0279C22.5798 33.0279 22.1671 32.8103 22.0315 32.3811L22.019 32.3415H20.9458L20.9568 32.4049C21.1079 33.2817 21.9251 33.7845 23.1987 33.7845C24.5368 33.7845 25.3042 33.2985 25.3042 32.4515C25.3045 31.8881 25.0617 31.3358 23.3008 31.1111Z"/><path fill="#fff" d="M28.857 29.438C28.0149 29.438 27.5418 29.759 27.2796 30.0793C27.277 29.8858 27.2695 29.6901 27.255 29.5956L27.2477 29.5485H26.1934L26.1948 29.6047C26.2032 29.9354 26.2032 30.2743 26.2032 30.6054V35.4176H27.2811V33.2389C27.4579 33.4251 27.6789 33.5712 27.927 33.6658C28.175 33.7604 28.4434 33.801 28.7112 33.7844C29.9897 33.7844 30.9541 32.8213 30.9541 31.5442C30.954 30.3435 30.0524 29.438 28.857 29.438ZM29.8504 31.5836C29.8504 32.2134 29.5095 32.9488 28.5489 32.9488C27.739 32.9488 27.2555 32.4561 27.2555 31.6309C27.2555 30.7682 27.7332 30.2736 28.566 30.2736C29.4534 30.2736 29.8504 30.9315 29.8504 31.5836Z"/><path fill="#fff" d="M35.8929 32.5934V30.8972C35.8929 29.929 35.2018 29.438 33.8388 29.438C32.1116 29.438 31.8332 30.3723 31.7934 30.774L31.7875 30.8338H32.8593L32.8695 30.7904C32.9369 30.5021 33.0733 30.1947 33.8475 30.1947C34.7203 30.1947 34.8322 30.5828 34.8322 30.921V31.0633H33.873C32.3065 31.0633 31.5448 31.5123 31.5448 32.4358C31.5448 33.1071 32.0846 33.7845 33.2908 33.7845C34.0357 33.7845 34.5621 33.6013 34.8592 33.2396C34.8632 33.371 34.8777 33.5021 34.9024 33.6316L34.9132 33.674H35.9327L35.9271 33.6144C35.9184 33.5186 35.8929 33.0187 35.8929 32.5934ZM32.6056 32.3883C32.6056 31.9512 32.9897 31.7647 33.8902 31.7647C34.3995 31.7647 34.6884 31.7647 34.8322 31.7697V31.8597C34.8322 32.6191 34.3855 33.004 33.5049 33.004C32.9334 33.0041 32.6056 32.7797 32.6056 32.3883V32.3883Z"/><path fill="#fff" d="M40.3592 32.318C40.2674 32.5297 40.1039 32.7085 39.8931 32.8278C39.6823 32.9472 39.4354 33.0007 39.189 32.9804C38.4032 32.9804 37.8956 32.4415 37.8956 31.6073C37.8956 30.7779 38.4032 30.242 39.189 30.242C39.437 30.222 39.6851 30.279 39.8938 30.4041C40.1025 30.5292 40.2597 30.7151 40.3403 30.9322L40.3548 30.9679H41.4156L41.4048 30.9047C41.3139 30.3599 40.7465 29.438 39.1974 29.438C38.8815 29.4267 38.5665 29.4753 38.2719 29.5808C37.9772 29.6862 37.7092 29.8464 37.4845 30.0512C37.2598 30.2561 37.0832 30.5013 36.9655 30.7717C36.8479 31.0421 36.7918 31.3318 36.8007 31.623C36.8007 32.936 37.7383 33.7844 39.1891 33.7844C40.336 33.7844 41.1706 33.2499 41.4209 32.3546L41.4401 32.2861H40.3752L40.3592 32.318Z"/><path fill="#fff" d="M44.3589 29.438C42.9729 29.438 42.0049 30.3366 42.0049 31.623C42.0049 32.6989 42.738 33.7844 44.376 33.7844C45.8945 33.7844 46.436 32.9656 46.6238 32.4776L46.652 32.4044H45.5736L45.5567 32.4327C45.325 32.817 44.9717 32.9884 44.4103 32.9884C44.0751 33.0009 43.7482 32.891 43.5005 32.6825C43.2528 32.474 43.1044 32.1839 43.0877 31.8752H46.6872V31.5994C46.6872 30.6024 46.0773 29.438 44.3589 29.438ZM44.3505 30.2105C45.3041 30.2105 45.5323 30.7887 45.5782 31.1737H43.108C43.2038 30.5605 43.6533 30.2105 44.3505 30.2105V30.2105Z"/><path fill="#fff" d="M48.647 27.6471H47.5688V33.6739H48.647V27.6471Z"/><path fill="#fff" d="M50.4108 27.663C50.3026 27.663 50.1967 27.6926 50.1067 27.748C50.0167 27.8034 49.9465 27.8822 49.9051 27.9744C49.8636 28.0665 49.8528 28.168 49.8739 28.2658C49.895 28.3637 49.9472 28.4536 50.0237 28.5241C50.1003 28.5947 50.1978 28.6427 50.304 28.6622C50.4102 28.6816 50.5202 28.6717 50.6203 28.6335C50.7203 28.5953 50.8058 28.5306 50.8659 28.4477C50.9261 28.3647 50.9582 28.2672 50.9582 28.1674C50.958 28.0337 50.9002 27.9055 50.7976 27.8109C50.695 27.7164 50.5559 27.6632 50.4108 27.663V27.663Z"/><path fill="#fff" d="M50.9582 29.5485H49.8801V33.6739H50.9582V29.5485Z"/><path fill="#fff" d="M57.4638 30.3367V29.5485H56.3595V28.2861H55.2816V29.5485H53.5858V29.1458C53.5858 28.577 53.7379 28.4037 54.2371 28.4037C54.3533 28.4031 54.4693 28.4132 54.5833 28.4338L54.6561 28.4493V27.644L54.6121 27.6332C54.4328 27.5964 54.2494 27.5799 54.0658 27.5841C53.0469 27.5841 52.5082 28.1131 52.5082 29.1142V29.5485H51.7117V30.3367H52.5082V33.6739H53.5858V30.3367H55.2816V32.4832C55.2816 33.357 55.6535 33.7135 56.5653 33.7135C56.8145 33.7226 57.0637 33.6951 57.3035 33.6319L57.3441 33.6193V32.881L57.2721 32.8951C57.1405 32.9165 57.007 32.9266 56.8733 32.9254C56.4792 32.9254 56.3593 32.7927 56.3593 32.3569V30.3368L57.4638 30.3367Z"/><path fill="#fff" d="M69.2246 27.4458C69.0442 28.7061 68.4942 29.4579 67.7156 29.5086C67.4517 29.5107 67.191 29.4563 66.9539 29.3496C66.7167 29.2429 66.5098 29.087 66.3493 28.894C66.9245 28.5209 67.4092 28.0418 67.7728 27.487C68.1364 26.9322 68.3709 26.3138 68.4614 25.6711C65.3475 26.5255 62.1267 27.0054 58.8792 27.0987C59.256 27.8185 59.8273 28.437 60.538 28.8949C59.2881 30.2171 58.6172 31.9208 58.656 33.674H59.9685C59.9375 32.3095 60.4197 30.9772 61.3334 29.9032C61.137 31.1531 61.0136 32.4118 60.9637 33.674H63.294C63.294 33.674 62.8666 32.0456 63.5624 32.0442C64.2582 32.0456 63.8308 33.674 63.8308 33.674H66.1611C66.115 32.4816 66.0019 31.2923 65.8223 30.1107C66.0816 30.3032 66.3728 30.456 66.6848 30.5633C67.0433 30.6867 67.4261 30.7385 67.808 30.7153C68.152 30.6915 68.4871 30.6027 68.7922 30.4543C69.0974 30.306 69.3661 30.1013 69.5816 29.8531C70.0719 29.3135 70.3896 28.5568 70.526 27.6041L69.2246 27.4458Z"/><path fill="url(#paint1_linear_694_530)" d="M63.7885 27.0647C68.4174 26.3707 72.0211 24.9652 71.8375 23.9254C71.654 22.8857 67.7527 22.6054 63.1238 23.2994C58.4949 23.9934 54.8912 25.3989 55.0748 26.4387C55.2583 27.4784 59.1596 27.7587 63.7885 27.0647Z"/><path fill="#fff" d="M68.0033 23.0583C67.4754 22.0489 66.5708 21.2483 65.455 20.8029C64.3392 20.3574 63.0867 20.297 61.9265 20.6325C60.7663 20.968 59.7759 21.6771 59.1363 22.6302C58.4968 23.5833 58.2507 24.7166 58.4433 25.8231C58.6874 27.2149 68.6954 25.7917 68.4396 24.3338C68.3615 23.8915 68.2146 23.462 68.0033 23.0583V23.0583Z"/><path fill="#fff" d="M23.9912 44.9432C23.4184 44.9432 22.9282 44.822 22.5207 44.5797C22.1131 44.3374 21.7992 43.9932 21.5789 43.5471C21.3641 43.101 21.2567 42.5695 21.2567 41.9527C21.2567 41.3414 21.3641 40.8126 21.5789 40.3665C21.7992 39.9204 22.1131 39.5762 22.5207 39.3339C22.9282 39.0916 23.4184 38.9704 23.9912 38.9704C24.3932 38.9704 24.7622 39.0338 25.0981 39.1604C25.4396 39.2871 25.7287 39.4716 25.9656 39.7139L25.7012 40.2674C25.4479 40.0306 25.1835 39.8599 24.9081 39.7552C24.6383 39.6451 24.3381 39.59 24.0077 39.59C23.3523 39.59 22.8511 39.7965 22.5042 40.2096C22.1572 40.6226 21.9837 41.2037 21.9837 41.9527C21.9837 42.7072 22.1572 43.291 22.5042 43.704C22.8511 44.1171 23.3523 44.3236 24.0077 44.3236C24.3381 44.3236 24.6383 44.2713 24.9081 44.1667C25.1835 44.0565 25.4479 43.883 25.7012 43.6462L25.9656 44.1997C25.7287 44.4365 25.4396 44.621 25.0981 44.7532C24.7622 44.8799 24.3932 44.9432 23.9912 44.9432ZM28.2102 44.8689V39.0448H31.8864V39.6148H28.8711V41.6305H31.7129V42.2005H28.8711V44.2988H31.8864V44.8689H28.2102ZM34.2066 44.8689V39.0448H36.5115C37.1393 39.0448 37.6185 39.1907 37.9489 39.4826C38.2849 39.7745 38.4528 40.1903 38.4528 40.73C38.4528 41.1596 38.3344 41.5121 38.0976 41.7875C37.8663 42.0628 37.5358 42.2418 37.1063 42.3244C37.3596 42.4125 37.5772 42.6273 37.7589 42.9688L38.7833 44.8689H38.0398L37.0319 43.0018C36.9053 42.7705 36.7593 42.6136 36.5941 42.531C36.4289 42.4483 36.2113 42.407 35.9415 42.407H34.884V44.8689H34.2066ZM34.884 41.8701H36.4123C37.3266 41.8701 37.7837 41.4901 37.7837 40.73C37.7837 39.981 37.3266 39.6065 36.4123 39.6065H34.884V41.8701ZM42.1808 44.8689V39.6313H40.066V39.0448H44.9813V39.6313H42.8665V44.8689H42.1808ZM46.9014 44.8689V39.0448H47.5788V44.8689H46.9014ZM50.1952 44.8689V39.0448H53.7971V39.6148H50.8726V41.647H53.6318V42.217H50.8726V44.8689H50.1952ZM55.9012 44.8689V39.0448H56.5787V44.8689H55.9012ZM59.1951 44.8689V39.0448H62.8713V39.6148H59.856V41.6305H62.6978V42.2005H59.856V44.2988H62.8713V44.8689H59.1951ZM65.1915 44.8689V39.0448H67.1577C68.0994 39.0448 68.8264 39.2954 69.3386 39.7965C69.8508 40.2922 70.1069 41.0109 70.1069 41.9527C70.1069 42.8944 69.8508 43.6159 69.3386 44.1171C68.8264 44.6183 68.0994 44.8689 67.1577 44.8689H65.1915ZM65.8689 44.2906H67.1081C68.6281 44.2906 69.3882 43.5113 69.3882 41.9527C69.3882 40.3996 68.6281 39.623 67.1081 39.623H65.8689V44.2906Z"/><defs><filter id="filter0_f_694_530" width="90.4" height="80.4" x=".8" y="12.8" color-interpolation-filters="sRGB" filterUnits="userSpaceOnUse"><feFlood flood-opacity="0" result="BackgroundImageFix"/><feBlend in="SourceGraphic" in2="BackgroundImageFix" mode="normal" result="shape"/><feGaussianBlur result="effect1_foregroundBlur_694_530" stdDeviation="13.6"/></filter><filter id="filter1_d_694_530" width="23.199" height="22.816" x="34.637" y="79.658" color-interpolation-filters="sRGB" filterUnits="userSpaceOnUse"><feFlood flood-opacity="0" result="BackgroundImageFix"/><feColorMatrix in="SourceAlpha" result="hardAlpha" type="matrix" values="0 0 0 0 0 0 0 0 0 0 0 0 0 0 0 0 0 0 127 0"/><feOffset dy="1.817"/><feGaussianBlur stdDeviation="3.271"/><feComposite in2="hardAlpha" operator="out"/><feColorMatrix type="matrix" values="0 0 0 0 0.486275 0 0 0 0 0.278431 0 0 0 0 0.988235 0 0 0 1 0"/><feBlend in2="BackgroundImageFix" mode="normal" result="effect1_dropShadow_694_530"/><feBlend in="SourceGraphic" in2="effect1_dropShadow_694_530" mode="normal" result="shape"/></filter><filter id="filter2_d_694_530" width="13.857" height="13.666" x="32.008" y="77.654" color-interpolation-filters="sRGB" filterUnits="userSpaceOnUse"><feFlood flood-opacity="0" result="BackgroundImageFix"/><feColorMatrix in="SourceAlpha" result="hardAlpha" type="matrix" values="0 0 0 0 0 0 0 0 0 0 0 0 0 0 0 0 0 0 127 0"/><feOffset dy="1"/><feGaussianBlur stdDeviation="2.2"/><feComposite in2="hardAlpha" operator="out"/><feColorMatrix type="matrix" values="0 0 0 0 0.486275 0 0 0 0 0.278431 0 0 0 0 0.988235 0 0 0 1 0"/><feBlend in2="BackgroundImageFix" mode="normal" result="effect1_dropShadow_694_530"/><feBlend in="SourceGraphic" in2="effect1_dropShadow_694_530" mode="normal" result="shape"/></filter><filter id="filter3_d_694_530" width="13.857" height="13.666" x="46.238" y="77.654" color-interpolation-filters="sRGB" filterUnits="userSpaceOnUse"><feFlood flood-opacity="0" result="BackgroundImageFix"/><feColorMatrix in="SourceAlpha" result="hardAlpha" type="matrix" values="0 0 0 0 0 0 0 0 0 0 0 0 0 0 0 0 0 0 127 0"/><feOffset dy="1"/><feGaussianBlur stdDeviation="2.2"/><feComposite in2="hardAlpha" operator="out"/><feColorMatrix type="matrix" values="0 0 0 0 0.486275 0 0 0 0 0.278431 0 0 0 0 0.988235 0 0 0 1 0"/><feBlend in2="BackgroundImageFix" mode="normal" result="effect1_dropShadow_694_530"/><feBlend in="SourceGraphic" in2="effect1_dropShadow_694_530" mode="normal" result="shape"/></filter><linearGradient id="paint0_linear_694_530" x1="28" x2="55" y1="49.967" y2="49.967" gradientUnits="userSpaceOnUse"><stop stop-color="#82FFE9"/><stop offset="1" stop-color="#7D48FD"/></linearGradient><linearGradient id="paint1_linear_694_530" x1="55.068" x2="71.844" y1="25.182" y2="25.182" gradientUnits="userSpaceOnUse"><stop offset=".082" stop-color="#82FFE8"/><stop offset=".951" stop-color="#7C47FC"/></linearGradient></defs></svg>