<svg width="117" height="99" viewBox="0 0 117 99" fill="none" xmlns="http://www.w3.org/2000/svg">
<g clip-path="url(#clip0_2_93)">
<path fill-rule="evenodd" clip-rule="evenodd" d="M12.1268 90.5891C17.1288 90.5891 20.2486 87.4991 20.2486 81.3654C20.2486 75.3668 17.1743 72.0502 12.1729 72.0502H8.22643V90.5891H12.1268ZM0 98.2597V64.3784H11.4605C15.6445 64.3784 18.9645 65.1107 21.3293 66.4387C26.1046 69.186 29.1064 74.4054 29.1064 81.3194C29.1064 92.491 22.5571 98.2597 12.0519 98.2597H0Z" fill="#390F52"/>
<path fill-rule="evenodd" clip-rule="evenodd" d="M47.681 64.1865H56.3133V84.9267C56.3133 88.4519 55.7653 91.1069 54.6234 92.9388C52.3856 96.5555 48.5945 98.7072 43.4791 98.7072C40.6474 98.7072 38.2265 98.1579 36.2629 97.0133C32.2888 94.6782 30.3706 91.5193 30.3706 84.9721V64.1865H39.0029V84.8352C39.0029 89.0472 40.3272 91.1069 43.3878 91.1069C46.3108 91.1069 47.681 89.6425 47.681 84.8807V64.1865Z" fill="#390F52"/>
<path fill-rule="evenodd" clip-rule="evenodd" d="M84.1547 81.3647C84.1547 76.092 80.3754 71.4103 74.9573 71.4103C69.5843 71.4103 65.805 75.9104 65.805 81.2282C65.805 86.7733 69.5843 91.2277 75.094 91.2277C80.4211 91.2277 84.1547 86.7276 84.1547 81.3647ZM56.9478 82.0973C56.9478 71.6135 64.5675 63.7391 74.9581 63.7391C84.9328 63.7391 93.0144 71.3845 93.0144 81.0902C93.0144 91.1161 85.1637 98.899 75.3735 98.899C65.8607 98.899 56.9478 92.1238 56.9478 82.0973Z" fill="#390F52"/>
<mask id="mask0_2_93" style="mask-type:alpha" maskUnits="userSpaceOnUse" x="93" y="63" width="24" height="36">
<path fill-rule="evenodd" clip-rule="evenodd" d="M93.0132 63.5475H116.425V98.7074H93.0132V63.5475Z" fill="#390F52"/>
</mask>
<g mask="url(#mask0_2_93)">
<path fill-rule="evenodd" clip-rule="evenodd" d="M107.818 74.0771C107.461 71.6506 106.48 70.781 104.83 70.781C103.27 70.781 101.932 71.9255 101.932 73.4364C101.932 75.4505 103.716 76.3661 107.328 77.9684C114.596 81.1731 116.425 83.874 116.425 88.3146C116.425 94.8614 112.055 98.7074 104.92 98.7074C97.7403 98.7074 93.0132 94.8614 93.0132 87.5824V86.8503H101.397C101.442 89.6427 102.779 91.4739 104.875 91.4739C106.614 91.4739 108.041 90.055 108.041 88.2232C108.041 85.5223 104.385 84.3318 101.397 83.0959C96.0008 80.8528 93.5482 77.9225 93.5482 73.5278C93.5482 67.7598 98.9885 63.5475 105.053 63.5475C107.238 63.5475 109.156 64.0513 110.895 64.9669C114.418 66.8436 116.112 69.545 116.157 74.0771H107.818Z" fill="#390F52"/>
</g>
<path fill-rule="evenodd" clip-rule="evenodd" d="M43.9589 10.1517C46.0897 7.99893 46.0897 4.66646 43.9589 2.51309C41.8281 0.360872 38.529 0.360872 36.3982 2.51309C34.2674 4.66646 34.2679 7.99893 36.3982 10.1517C38.5296 12.3045 41.8281 12.3051 43.9589 10.1517Z" fill="#390F52"/>
<path fill-rule="evenodd" clip-rule="evenodd" d="M80.0267 38.9522C77.8959 36.7995 74.5969 36.7995 72.466 38.9522C70.3352 41.1051 70.3357 44.4376 72.4666 46.5905C74.5974 48.7432 77.8959 48.7438 80.0267 46.5905C82.1576 44.4376 82.1576 41.1051 80.0267 38.9522Z" fill="#390F52"/>
<path fill-rule="evenodd" clip-rule="evenodd" d="M48.6039 36.0843C49.6381 35.4816 50.3778 34.5076 50.6868 33.3423C50.9487 32.3554 50.9341 31.2393 50.4798 30.4071C49.4373 28.6977 48.8535 26.6191 48.8535 24.3689C48.8535 18.747 52.8016 13.9898 58.4142 13.9898C61.0505 13.9898 63.3151 15.0645 64.9829 16.7755C65.2532 15.1008 66.4096 13.5887 67.9945 12.6646C69.2956 11.9055 70.7537 11.6664 72.1344 11.8805C68.7348 8.25863 63.8473 6.01343 58.4142 6.01343C47.7122 6.01343 39.8643 14.2781 39.8643 25.2821C39.8643 29.1351 41.0958 32.5305 43.1371 35.2867C44.376 36.7999 46.7841 37.1461 48.6039 36.0843Z" fill="#390F52"/>
<path fill-rule="evenodd" clip-rule="evenodd" d="M76.5623 24.2736C76.5623 21.1794 75.8076 18.2855 74.4798 15.7497C73.2758 13.697 70.6107 13.0948 68.5709 14.3039C66.7577 15.379 65.8452 17.6142 66.5511 19.5562C67.2664 21.0699 67.6601 22.785 67.6601 24.5638C67.6601 30.2719 63.7982 35.061 58.287 35.061C56.0234 35.061 54.043 34.311 52.4769 33.0391C52.4409 33.3443 52.3842 33.6488 52.3053 33.9511C51.87 35.6211 50.827 37.0167 49.3692 37.8808C48.379 38.4683 47.2972 38.7465 46.2287 38.7465C46.216 38.7465 46.2032 38.7454 46.1904 38.7454C49.598 41.5145 54.0164 43.0909 58.5697 43.0909C68.5553 43.0909 76.5623 34.8677 76.5623 24.2736Z" fill="#390F52"/>
</g>
<defs>
<clipPath id="clip0_2_93">
<rect width="117" height="98" fill="white" transform="translate(0 0.898926)"/>
</clipPath>
</defs>
</svg>
