<svg xmlns="http://www.w3.org/2000/svg" width="216" height="50" fill="none" viewBox="0 0 216 50"><path fill="#F18700" fill-rule="evenodd" d="M24.664 38.35c-1.604-.663-3.014-.636-4.507-.028-.25.111-.498.222-.747.36-.802.36-1.576.58-2.405.083a11 11 0 0 1-.36-.221c-.58-.332-.885-.498-1.272-.72-.166-.082-.36-.22-.691-.386-.332-.194-.747-.083-.912.249l-.498.857-.498.857c-.193.332-.083.746.25.912 1.243.72 1.05.609 2.322 1.328.83.497 1.05 1.244 1.133 2.129a5.6 5.6 0 0 0 .194 1.52 5.87 5.87 0 0 0 2.765 3.595 6 6 0 0 0 4.507.58 5.93 5.93 0 0 0 3.152-2.1c.166-.222.304-.443.442-.665a5.95 5.95 0 0 0 .58-4.479c-.386-1.465-1.354-2.765-2.764-3.594-.249-.083-.47-.194-.691-.277m7.078-16.147a10 10 0 0 0-.94-2.24 10.2 10.2 0 0 0-1.466-1.935l.388-2.13c.027-.22-.056-.442-.25-.552l-2.46-1.41a.54.54 0 0 0-.636.055l-1.66 1.41a9.8 9.8 0 0 0-4.81 0l-1.632-1.383a.545.545 0 0 0-.635-.055l-2.461 1.41c-.194.11-.304.36-.25.553l.388 2.13a9.9 9.9 0 0 0-2.406 4.147l-2.018.719a.57.57 0 0 0-.36.525v2.82c0 .221.139.443.36.498l2.018.719c.222.774.526 1.52.94 2.24.415.718.913 1.354 1.466 1.935l-.387 2.129a.54.54 0 0 0 .276.58l.25.139h.027l.387.221 1.797 1.05a.54.54 0 0 0 .608-.055l1.632-1.382a9.8 9.8 0 0 0 4.81 0l1.632 1.382a.54.54 0 0 0 .608.056l2.461-1.41a.54.54 0 0 0 .277-.581l-.387-2.13a9.9 9.9 0 0 0 2.405-4.146l2.019-.72a.53.53 0 0 0 .36-.497v-2.82a.57.57 0 0 0-.36-.526zm-4.535-.166a5.604 5.604 0 0 1-2.046 7.659 5.604 5.604 0 0 1-7.659-2.046 5.605 5.605 0 0 1 2.046-7.66c2.682-1.548 6.111-.607 7.66 2.047M9.512 20.1a11 11 0 0 1-.609.415c-1.41.83-3.014.968-4.479.58-1.465-.386-2.765-1.354-3.594-2.764a6 6 0 0 1-.36-.72 5.95 5.95 0 0 1-.249-3.787 5.87 5.87 0 0 1 2.765-3.595 5.95 5.95 0 0 1 4.48-.58 7 7 0 0 1 1.437.58c.802.36 1.576.581 2.406.083 1.244-.719 1.05-.608 2.322-1.327.332-.193.747-.083.913.249l.497.857.498.857a.65.65 0 0 1-.249.913c-.331.193-.525.304-.69.387-.388.221-.692.387-1.273.719-.11.055-.221.138-.36.22-.829.499-1.05 1.245-1.133 2.13 0 .277-.027.553-.055.83-.221 1.658-.913 2.903-2.267 3.953m25.686 9.512c.194-.138.387-.277.608-.415a5.95 5.95 0 0 1 4.48-.58c1.465.387 2.765 1.354 3.594 2.765.138.22.249.47.36.718a5.95 5.95 0 0 1 .248 3.788 5.87 5.87 0 0 1-2.764 3.595 5.95 5.95 0 0 1-4.48.58 7 7 0 0 1-1.438-.58c-.801-.36-1.576-.58-2.405-.083-1.244.719-1.05.608-2.323 1.327-.331.194-.746.083-.912-.249l-.498-.857-.497-.857c-.194-.332-.084-.747.248-.913a7 7 0 0 1 .692-.387c.387-.22.69-.387 1.271-.718.111-.056.222-.139.36-.222.83-.497 1.05-1.244 1.134-2.129 0-.276.027-.553.055-.83.221-1.686.885-2.93 2.267-3.953m1.963 6.691c.277.221.609.387.94.47a2.65 2.65 0 0 0 1.936-.249c.221-.11.415-.276.553-.442.304-.304.525-.691.636-1.106a2.65 2.65 0 0 0-.249-1.936 2.54 2.54 0 0 0-1.548-1.188 2.65 2.65 0 0 0-1.936.248 2.54 2.54 0 0 0-1.189 1.549 2.65 2.65 0 0 0 .249 1.935c.166.304.36.553.608.72M7.548 13.383a2.5 2.5 0 0 0-.94-.47 2.65 2.65 0 0 0-1.935.248c-.221.11-.387.277-.553.443a2.5 2.5 0 0 0-.636 1.106 2.65 2.65 0 0 0 .249 1.935c.36.608.912 1.023 1.548 1.189a2.65 2.65 0 0 0 1.936-.249 2.54 2.54 0 0 0 1.189-1.548 2.65 2.65 0 0 0-.25-1.936 3.1 3.1 0 0 0-.608-.719m4.259 20.211c.027.25.055.498.055.747a5.87 5.87 0 0 1-1.742 4.175 5.87 5.87 0 0 1-4.175 1.742c-.277 0-.526-.028-.802-.055-1.327-.166-2.489-.775-3.401-1.687a5.87 5.87 0 0 1 0-8.35 5.7 5.7 0 0 1 1.217-.94c.718-.525 1.271-1.079 1.271-2.046v-2.682c0-.36.305-.664.664-.664h1.991c.36 0 .663.304.663.664v2.682c0 .967.553 1.52 1.272 2.046.25.138.47.304.692.47 1.354.968 2.073 2.184 2.294 3.898m21.069-17.502a7 7 0 0 1-.056-.746c0-1.632.664-3.097 1.742-4.175a5.87 5.87 0 0 1 4.175-1.742c.277 0 .526.027.802.055 1.327.166 2.489.774 3.401 1.687a5.87 5.87 0 0 1 0 8.35c-.36.36-.774.691-1.216.94-.72.525-1.272 1.078-1.272 2.046v2.682c0 .36-.305.663-.664.663h-1.991a.673.673 0 0 1-.663-.663v-2.682c0-.968-.553-1.52-1.272-2.046-.25-.138-.47-.304-.692-.47-1.327-.968-2.073-2.184-2.294-3.899m6.801 1.66c.332-.14.636-.333.885-.581a2.53 2.53 0 0 0 .747-1.798c0-.249-.028-.47-.11-.719-.111-.414-.36-.802-.637-1.106a2.53 2.53 0 0 0-1.797-.746 2.546 2.546 0 0 0-2.571 2.544c0 .718.276 1.354.746 1.797a2.53 2.53 0 0 0 1.797.746c.36.028.664-.027.94-.138M5.005 31.934a2.7 2.7 0 0 0-.885.581 2.53 2.53 0 0 0-.747 1.797c0 .25.028.47.11.72.111.414.36.801.637 1.105.47.47 1.106.747 1.825.747s1.355-.277 1.797-.747a2.53 2.53 0 0 0 .747-1.797c0-.719-.277-1.355-.747-1.797a2.53 2.53 0 0 0-1.797-.747 2.2 2.2 0 0 0-.94.138m17.336-20.1h.387a5.8 5.8 0 0 0 1.742-.443c.249-.11.498-.221.747-.36.414-.193.801-.332 1.189-.36h.138c.332 0 .663.084 1.023.277.138.083.276.166.36.222.58.331.884.497 1.271.718.166.083.36.222.691.388.332.193.747.083.913-.25l.497-.856.498-.858c.194-.331.083-.746-.249-.912l-.193-.11c-.028 0-.028-.028-.056-.028-1.244-.72-.829-.47-2.073-1.19-.83-.497-1.05-1.244-1.134-2.128a6 6 0 0 0-.193-1.549A5.87 5.87 0 0 0 25.134.802C24.194.277 23.198 0 22.175 0h-.442a6 6 0 0 0-.996.166 5.93 5.93 0 0 0-3.152 2.101 9 9 0 0 0-.442.664 5.95 5.95 0 0 0-.58 4.48c.386 1.465 1.354 2.764 2.764 3.594l.664.331c.857.36 1.604.498 2.35.498m2.544-5.53a3.4 3.4 0 0 1-.304.884 2.54 2.54 0 0 1-1.549 1.189l-.415.083h-.193a2.5 2.5 0 0 1-1.3-.36 2.54 2.54 0 0 1-1.188-1.548 2.65 2.65 0 0 1 .248-1.936 2.54 2.54 0 0 1 1.549-1.188l.415-.083h.304c.22 0 .442.027.636.083.22.055.442.138.663.276a2.55 2.55 0 0 1 1.19 1.548c-.029.332 0 .692-.056 1.051m-5.06 37.105a3.4 3.4 0 0 1 .304-.885 2.54 2.54 0 0 1 1.548-1.189 2.65 2.65 0 0 1 1.936.25 2.54 2.54 0 0 1 1.189 1.548 2.65 2.65 0 0 1-.249 1.935 2.54 2.54 0 0 1-1.548 1.189 2.5 2.5 0 0 1-1.272 0 2.3 2.3 0 0 1-.664-.276 2.54 2.54 0 0 1-1.189-1.549c-.11-.304-.11-.663-.055-1.023" clip-rule="evenodd"/><path fill="#101010" fill-rule="evenodd" d="M55.41 37.687h4.203V20.074l7.88 17.613h2.931l7.852-17.613v17.613h4.203V12h-4.507l-8.986 20.157L59.972 12h-4.534v25.687zM216 24.802c0-7.687-5.806-13.134-13.134-13.134-7.244 0-13.133 5.447-13.133 13.134 0 7.714 5.889 13.161 13.133 13.161 7.355 0 13.134-5.447 13.134-13.161m-21.926 0c0-5.807 3.705-9.429 8.792-9.429 5.116 0 8.793 3.622 8.793 9.429 0 5.806-3.705 9.511-8.793 9.511-5.087-.027-8.792-3.705-8.792-9.511m-23.005-9.373h6.885v22.258h4.203V15.429h6.829V12h-17.945v3.428zm-27.014 9.373c0 7.714 5.89 13.133 13.134 13.133 5.364 0 9.981-2.654 11.945-7.686h-5.06c-1.355 2.737-3.816 4.037-6.885 4.037-5.115 0-8.793-3.65-8.793-9.457 0-5.806 3.705-9.428 8.793-9.428 3.069 0 5.502 1.3 6.885 4.037h5.06c-1.964-5.032-6.581-7.714-11.945-7.714-7.244-.056-13.134 5.391-13.134 13.078M120 27.429c0 6.276 4.258 10.617 9.539 10.617 3.401 0 5.834-1.631 7.134-3.373v3.041h4.258V17.336h-4.258v2.959c-1.244-1.66-3.622-3.29-7.051-3.29-5.364 0-9.622 4.12-9.622 10.424m16.673.055c0 4.396-2.986 6.885-6.166 6.885-3.152 0-6.166-2.544-6.166-6.94s3.041-6.775 6.166-6.775c3.18 0 6.166 2.489 6.166 6.83m-27.152 4.562c0 4.148 2.267 5.668 5.889 5.668h3.318v-3.511h-2.599c-1.77 0-2.378-.636-2.378-2.157V20.765h4.949v-3.429h-4.949v-5.06h-4.258v5.06h-2.405v3.429h2.405v11.281zm-14.13-11.502c3.153 0 5.614 1.99 5.697 5.143H89.807c.442-3.235 2.737-5.143 5.585-5.143m9.54 11.087h-4.562c-.775 1.604-2.212 2.848-4.811 2.848-3.097 0-5.503-2.046-5.807-5.392h15.567c.111-.69.138-1.354.138-2.073 0-6-4.092-10.01-9.898-10.01-6.028 0-10.176 4.093-10.176 10.508 0 6.387 4.314 10.534 10.176 10.534 5.004 0 8.239-2.848 9.373-6.415" clip-rule="evenodd"/></svg>