<svg width="155" height="49" viewBox="0 0 155 49" fill="none" xmlns="http://www.w3.org/2000/svg">
<g clip-path="url(#clip0_2_114)">
<path d="M135.67 39.552C131.709 39.552 128.317 36.4989 128.317 31.4895C128.317 26.4277 131.709 23.2422 135.67 23.2422C139.635 23.2422 143.029 26.4277 143.029 31.4895C143.029 36.4989 139.635 39.552 135.67 39.552ZM135.612 13.8938C125.477 13.8938 117.293 20.9702 117.293 31.4895C117.293 41.9477 125.477 48.8946 135.67 48.8946C145.861 48.8946 154.049 41.9477 154.049 31.4895C154.049 20.9702 145.861 13.8953 135.612 13.8953V13.8938ZM103.066 38.896V38.7797C103.066 38.7797 104.385 37.7367 105.962 35.7207L117.783 20.3287V14.6662H88.8422V24.0887H100.241C102.249 24.0887 103.069 23.9622 103.069 23.9622V24.0887C103.069 24.0887 101.875 25.0589 100.241 27.1462L88.3384 42.5382V48.1295H118.112V38.7084H105.965C103.884 38.7084 103.069 38.8946 103.069 38.8946L103.066 38.896ZM75.6255 29.4807C75.6255 34.4786 73.4292 38.7098 68.7646 38.7098C66.505 38.7098 65.309 37.4109 65.309 34.288V14.6662H54.4138V36.368C54.4138 45.7847 59.5131 48.896 65.9278 48.896C70.2773 48.896 74.3043 46.6895 76.0703 43.1244H76.1897C76.1897 43.1244 76.0703 44.1062 76.0703 45.2V48.1309H86.5106V14.6662H75.6255V29.4807ZM45.8863 34.2895V24.0247H52.6824V15.2567H45.8863V5.6422H35.3164V15.2567H30.849V24.0233H35.0012V35.7818C35.0012 47.0211 45.0098 48.4538 50.1666 48.4538C51.9326 48.4538 53.1214 48.256 53.1214 48.256V38.5106C53.1214 38.5106 52.5601 38.5775 51.6778 38.5775C49.6082 38.5775 45.8891 38.0509 45.8891 34.2866L45.8863 34.2895ZM12.5445 14.9935C12.5445 12.3986 15.069 11.3542 17.3272 11.3542C22.7431 11.3542 27.2695 15.4502 27.2695 15.4502L31.9241 6.15565C31.9241 6.15565 27.1458 0.898926 17.4495 0.898926C8.51463 0.898926 1.53282 6.54547 1.53282 15.1244C1.53282 29.4167 21.8018 29.2233 21.8018 34.7404C21.8018 37.5331 19.3493 38.448 17.0854 38.448C11.409 38.448 6.31834 33.6393 6.31834 33.6393L0.529663 42.2793C0.529663 42.2793 6.38454 48.8989 16.9515 48.8989C27.0795 48.8989 32.8107 42.2153 32.8107 34.4771C32.8107 19.8007 12.546 20.8437 12.546 14.9949L12.5445 14.9935Z" fill="#1B232E"/>
</g>
<defs>
<clipPath id="clip0_2_114">
<rect width="154" height="48" fill="white" transform="translate(0.529663 0.898926)"/>
</clipPath>
</defs>
</svg>
