<svg xmlns="http://www.w3.org/2000/svg" fill="none" aria-label="One monolithic Terraform state decomposed into a grid of small isolated per-client stacks" viewBox="0 0 720 440"><defs><linearGradient id="b" x1="0" x2="1" y1="0" y2="0"><stop offset="0" stop-color="#2ad9c2"/><stop offset=".55" stop-color="#55c1b4"/><stop offset="1" stop-color="#d191bf"/></linearGradient><linearGradient id="c" x1="0" x2="1" y1="0" y2="1"><stop offset="0" stop-color="#2ad9c2"/><stop offset="1" stop-color="#d191bf"/></linearGradient><pattern id="a" width="60" height="24" patternUnits="userSpaceOnUse"><rect width="46" height="12" y="5" fill="#fff" opacity=".13" rx="4"/></pattern></defs><rect width="220" height="320" x="40" y="60" fill="#0e383a" rx="18"/><rect width="184" height="280" x="58" y="80" fill="url(#a)" rx="8"/><rect width="46" height="12" x="58" y="133" fill="#d191bf" opacity=".75" rx="4"/><rect width="46" height="12" x="118" y="229" fill="#d191bf" opacity=".6" rx="4"/><rect width="46" height="12" x="178" y="325" fill="#d191bf" opacity=".75" rx="4"/><rect width="46" height="14" x="232" y="356" fill="#d191bf" opacity=".85" rx="4" transform="rotate(14 255 363)"/><rect width="40" height="13" x="212" y="382" fill="#2ad9c2" opacity=".7" rx="4" transform="rotate(-9 232 388)"/><path stroke="url(#b)" stroke-linecap="round" stroke-width="9" d="M292 220h92"/><path fill="#d191bf" d="m380 202 32 18-32 18Z"/><g fill="#fff" stroke="url(#c)" stroke-width="1.6"><rect width="52" height="38" x="436" y="120" rx="9"/><rect width="52" height="38" x="502" y="120" rx="9"/><rect width="52" height="38" x="568" y="120" rx="9"/><rect width="52" height="38" x="634" y="120" rx="9"/><rect width="52" height="38" x="436" y="172" rx="9"/><rect width="52" height="38" x="502" y="172" rx="9"/><rect width="52" height="38" x="568" y="172" rx="9"/><rect width="52" height="38" x="634" y="172" rx="9"/><rect width="52" height="38" x="436" y="224" rx="9"/><rect width="52" height="38" x="502" y="224" rx="9"/><rect width="52" height="38" x="568" y="224" rx="9"/><rect width="52" height="38" x="634" y="224" rx="9"/><rect width="52" height="38" x="436" y="276" rx="9"/><rect width="52" height="38" x="502" y="276" rx="9"/><rect width="52" height="38" x="568" y="276" rx="9"/><rect width="52" height="38" x="634" y="276" rx="9"/></g><g fill="#55c1b4"><circle cx="449" cy="133" r="3.4"/><circle cx="515" cy="133" r="3.4"/><circle cx="581" cy="133" r="3.4"/><circle cx="647" cy="133" r="3.4"/><circle cx="449" cy="185" r="3.4"/><circle cx="581" cy="185" r="3.4"/><circle cx="515" cy="237" r="3.4"/><circle cx="647" cy="237" r="3.4"/><circle cx="449" cy="289" r="3.4"/><circle cx="581" cy="289" r="3.4"/></g><g fill="#d191bf"><circle cx="515" cy="185" r="3.4"/><circle cx="647" cy="185" r="3.4"/><circle cx="449" cy="237" r="3.4"/><circle cx="581" cy="237" r="3.4"/><circle cx="515" cy="289" r="3.4"/><circle cx="647" cy="289" r="3.4"/></g></svg>