<svg xmlns="http://www.w3.org/2000/svg" viewBox="0 0 73 24.1"><defs><style>.cls-1{fill:#fff;}</style></defs><title>icon_white</title><g id="Layer_2" data-name="Layer 2"><g id="Layer_1-2" data-name="Layer 1"><polygon class="cls-1" points="23.4 9.7 23.3 8.9 23.2 8.6 18.8 8.6 0 8.6 0 12.6 24 12.6 23.8 11.8 23.4 9.7"/><path class="cls-1" d="M49.5,20.4l-2-10.1L46.4,4.4a3.7,3.7,0,0,0-2.2-1.3,4.1,4.1,0,0,0-2.6.7L45,21.3h0a2.7,2.7,0,0,0,1,2.1,3.2,3.2,0,0,0,5-1.6C50.3,21.8,49.7,21,49.5,20.4Z"/><path class="cls-1" d="M43.4,19.6l-.8-3.9-2.3-12a3.7,3.7,0,0,0-2.2-1.3,4.3,4.3,0,0,0-2.7.7l3.4,17.5h0c.5,3,2,2.8,3,2.8H42a1.9,1.9,0,0,0,1.3-.7,2.5,2.5,0,0,0,.3-1.8Z"/><polygon class="cls-1" points="49.9 16.6 50.5 19.8 57.5 21.7 58.5 17.8 54 16.6 49.9 16.6"/><polygon class="cls-1" points="48.9 11.6 49.1 12.3 49.5 14.4 49.6 15.2 49.7 15.6 54.1 15.6 60.4 15.6 73 15.6 73 11.6 48.9 11.6"/><polygon class="cls-1" points="23 7.6 22.4 4.3 15.5 2.4 14.4 6.3 18.9 7.6 23 7.6"/><path class="cls-1" d="M34.2,3.4c-.5-3-2-2.8-3-2.8h-.3a1.9,1.9,0,0,0-1.3.7,2.5,2.5,0,0,0-.3,1.8l.3,1.4.8,3.9,2.3,12a3.7,3.7,0,0,0,2.2,1.3,4.3,4.3,0,0,0,2.7-.7L34.2,3.4Z"/><path class="cls-1" d="M28,2.8A2.7,2.7,0,0,0,26.9.7,3.1,3.1,0,0,0,24.8,0a3.4,3.4,0,0,0-2.2,1.1,1.9,1.9,0,0,0-.7,1.4h.4c.4,0,.8.6,1.1,1.2h0l.7,3.8V9.1l.3,1.6.5,2.5v.7l1.1,5.8A3.7,3.7,0,0,0,28.8,21a4.2,4.2,0,0,0,2.7-.7L28,2.8Z"/></g></g></svg>