<svg xmlns="http://www.w3.org/2000/svg" viewBox="0 0 240 23.1"><defs><style>.cls-1{fill:#fff;}</style></defs><title>masterpoint_white_logo</title><g id="Layer_2" data-name="Layer 2"><g id="Layer_1-2" data-name="Layer 1"><path class="cls-1" d="M22.4,22.7V.4H17.1L11.2,9.8,5.3.4H0V22.7H4.9V8.2l6.2,9.5h.1l6.3-9.6V22.7Zm27.2,0L39.9.2H35.4L25.8,22.7h5l2-5h9.5l2,5Zm-8.9-9.4H34.6l3-7.3,3,7.3Zm28.6,2.7h0a6.3,6.3,0,0,0-.5-2.5,5.1,5.1,0,0,0-1.4-1.8A8.5,8.5,0,0,0,65,10.4l-3-1-2.4-.7-1.5-.6a1.9,1.9,0,0,1-.8-.7,2,2,0,0,1-.2-.9h0A1.7,1.7,0,0,1,57.9,5a3.5,3.5,0,0,1,2.2-.6,7.5,7.5,0,0,1,2.9.6,16.2,16.2,0,0,1,2.9,1.6l2.6-3.7A13.1,13.1,0,0,0,64.6.8,13.4,13.4,0,0,0,60.1.1,9.9,9.9,0,0,0,57,.5a7.2,7.2,0,0,0-2.5,1.4A6.3,6.3,0,0,0,52.9,4a6.5,6.5,0,0,0-.6,2.8h0a6.5,6.5,0,0,0,.5,2.8,5.1,5.1,0,0,0,1.5,1.9,8.7,8.7,0,0,0,2.3,1.3l3.1.9,2.3.7,1.4.6a1.8,1.8,0,0,1,.7.7,1.9,1.9,0,0,1,.2.8h0a1.8,1.8,0,0,1-.8,1.5,4.3,4.3,0,0,1-2.4.6,8.4,8.4,0,0,1-3.5-.7,14.6,14.6,0,0,1-3.1-2l-2.9,3.5a13.3,13.3,0,0,0,4.5,2.7,14.8,14.8,0,0,0,5,.9,11.2,11.2,0,0,0,3.3-.5,7.6,7.6,0,0,0,2.6-1.3,6.1,6.1,0,0,0,1.7-2.2,7,7,0,0,0,.6-3ZM90.3,4.9V.4H71.8V4.9h6.8V22.7h4.9V4.9Zm20.8,17.8V18.4H99V13.7h10.5V9.3H99V4.8h12V.4H94.1V22.7Zm23.7,0-5.5-8a7.7,7.7,0,0,0,3.5-2.5,7,7,0,0,0,1.3-4.4h0a6.8,6.8,0,0,0-2.2-5.4A9.1,9.1,0,0,0,125.7.4H115.5V22.7h4.9V15.6h3.9l4.8,7.2ZM129.2,8.1a2.9,2.9,0,0,1-1,2.3,4.1,4.1,0,0,1-2.8.9h-5V4.8h4.9a4.5,4.5,0,0,1,2.8.8,2.9,2.9,0,0,1,1,2.4Zm27.1.1h0a8.1,8.1,0,0,0-.6-3.1A6.9,6.9,0,0,0,154,2.5,7.6,7.6,0,0,0,151.3.9a10.7,10.7,0,0,0-3.6-.6h-9.1V22.7h4.9V16h3.7a12.2,12.2,0,0,0,3.5-.5,8.4,8.4,0,0,0,2.9-1.5,7,7,0,0,0,1.9-2.5,7.8,7.8,0,0,0,.7-3.4Zm-5,.1a3.2,3.2,0,0,1-1,2.4,4,4,0,0,1-2.9,1h-3.9V4.8h3.8a4.5,4.5,0,0,1,2.9.9,3,3,0,0,1,1.1,2.5Zm31.4,3.3h0a11.5,11.5,0,0,0-.9-4.5,11,11,0,0,0-2.5-3.6A11.8,11.8,0,0,0,175.6.9a12.9,12.9,0,0,0-9.5,0,11.4,11.4,0,0,0-6.2,6.2,11.3,11.3,0,0,0-.9,4.5h0a11.5,11.5,0,0,0,.9,4.5,11,11,0,0,0,2.5,3.6,11.8,11.8,0,0,0,3.8,2.5,12.2,12.2,0,0,0,4.8.9,12.3,12.3,0,0,0,4.8-.9,11.4,11.4,0,0,0,6.2-6.2,11.3,11.3,0,0,0,.9-4.5Zm-5.1.1a7.3,7.3,0,0,1-.5,2.7,7.1,7.1,0,0,1-1.4,2.2,6.2,6.2,0,0,1-2.1,1.5,6.7,6.7,0,0,1-2.7.5,6.5,6.5,0,0,1-2.7-.6,6.7,6.7,0,0,1-3.5-3.8,7.4,7.4,0,0,1-.5-2.7h0a7.3,7.3,0,0,1,.5-2.7A7.1,7.1,0,0,1,166,6.6a6.2,6.2,0,0,1,2.1-1.5,6.7,6.7,0,0,1,2.7-.5,6.6,6.6,0,0,1,2.7.6,6.7,6.7,0,0,1,3.6,3.8,7.4,7.4,0,0,1,.5,2.7Zm14.7,11.1V.4h-4.9V22.7Zm25.5,0V.4h-4.9V14.2L202.4.4h-4.5V22.7h4.9V8.5l10.8,14.2ZM240,4.9V.4H221.5V4.9h6.8V22.7h4.9V4.9Z"/></g></g></svg>