<svg xmlns="http://www.w3.org/2000/svg" viewBox="0 0 330.7 24.1"><defs><style>.cls-1{fill:#fff;}</style></defs><title>masterpoint_lockup</title><g id="Layer_2" data-name="Layer 2"><g id="Layer_1-2" data-name="Layer 1"><path class="cls-1" d="M113.1,23.2V.9h-5.3l-5.9,9.5L96,.9H90.7V23.2h4.9V8.7l6.2,9.5h.1l6.3-9.6V23.2Zm27.2,0L130.6.7h-4.5l-9.6,22.5h5l2-5H133l2,5Zm-8.9-9.4h-5.9l3-7.3,3,7.3Zm28.6,2.7h0a6.3,6.3,0,0,0-.5-2.5,5.1,5.1,0,0,0-1.4-1.8,8.5,8.5,0,0,0-2.2-1.3l-3-1-2.4-.7-1.5-.6a1.9,1.9,0,0,1-.8-.7,2,2,0,0,1-.2-.9h0a1.7,1.7,0,0,1,.7-1.4,3.5,3.5,0,0,1,2.2-.6,7.5,7.5,0,0,1,2.9.6,16.2,16.2,0,0,1,2.9,1.6l2.6-3.7a13.1,13.1,0,0,0-3.8-2.1,13.4,13.4,0,0,0-4.5-.7,9.9,9.9,0,0,0-3.2.5,7.2,7.2,0,0,0-2.5,1.4,6.3,6.3,0,0,0-1.6,2.1,6.5,6.5,0,0,0-.6,2.8h0a6.5,6.5,0,0,0,.5,2.8A5.1,5.1,0,0,0,145,12a8.7,8.7,0,0,0,2.3,1.3l3.1.9,2.3.7,1.4.6a1.8,1.8,0,0,1,.7.7,1.9,1.9,0,0,1,.2.8h0a1.8,1.8,0,0,1-.8,1.5,4.3,4.3,0,0,1-2.4.6,8.4,8.4,0,0,1-3.5-.7,14.6,14.6,0,0,1-3.1-2L142.2,20a13.3,13.3,0,0,0,4.5,2.7,14.8,14.8,0,0,0,5,.9,11.2,11.2,0,0,0,3.3-.5,7.6,7.6,0,0,0,2.6-1.3,6.1,6.1,0,0,0,1.7-2.2,7,7,0,0,0,.6-3ZM181,5.4V.9H162.5V5.4h6.8V23.2h4.9V5.4Zm20.8,17.8V18.8H189.7V14.1h10.5V9.8H189.7V5.2h12V.9H184.8V23.2Zm23.7,0-5.5-8a7.7,7.7,0,0,0,3.5-2.5,7,7,0,0,0,1.3-4.4h0a6.8,6.8,0,0,0-2.2-5.4A9.1,9.1,0,0,0,216.4.9H206.2V23.2h4.9V16.1H215l4.8,7.2ZM219.9,8.6a2.9,2.9,0,0,1-1,2.3,4.1,4.1,0,0,1-2.8.9h-5V5.3H216a4.5,4.5,0,0,1,2.8.8,2.9,2.9,0,0,1,1,2.4Zm27.1.1h0a8.1,8.1,0,0,0-.6-3.1A6.9,6.9,0,0,0,244.7,3,7.6,7.6,0,0,0,242,1.4a10.7,10.7,0,0,0-3.6-.6h-9.1V23.2h4.9V16.5H238a12.2,12.2,0,0,0,3.5-.5,8.4,8.4,0,0,0,2.9-1.5,7,7,0,0,0,1.9-2.5,7.8,7.8,0,0,0,.7-3.4Zm-5,.1a3.2,3.2,0,0,1-1,2.4,4,4,0,0,1-2.9,1h-3.9V5.3H238a4.5,4.5,0,0,1,2.9.9A3,3,0,0,1,242,8.7ZM273.4,12h0a11.5,11.5,0,0,0-.9-4.5,11,11,0,0,0-2.5-3.6,11.8,11.8,0,0,0-3.8-2.5,12.9,12.9,0,0,0-9.5,0,11.4,11.4,0,0,0-6.2,6.2,11.3,11.3,0,0,0-.9,4.5h0a11.5,11.5,0,0,0,.9,4.5,11,11,0,0,0,2.5,3.6,11.8,11.8,0,0,0,3.8,2.5,12.2,12.2,0,0,0,4.8.9,12.3,12.3,0,0,0,4.8-.9,11.4,11.4,0,0,0,6.2-6.2,11.3,11.3,0,0,0,.9-4.5Zm-5.1.1a7.3,7.3,0,0,1-.5,2.7,7.1,7.1,0,0,1-1.4,2.2,6.2,6.2,0,0,1-2.1,1.5,6.7,6.7,0,0,1-2.7.5,6.5,6.5,0,0,1-2.7-.6,6.7,6.7,0,0,1-3.5-3.8,7.4,7.4,0,0,1-.5-2.7h0a7.3,7.3,0,0,1,.5-2.7,7.1,7.1,0,0,1,1.4-2.2,6.2,6.2,0,0,1,2.1-1.5,6.7,6.7,0,0,1,2.7-.5,6.6,6.6,0,0,1,2.7.6,6.7,6.7,0,0,1,3.6,3.8,7.4,7.4,0,0,1,.5,2.7Zm14.7,11.1V.9H278V23.2Zm25.5,0V.9h-4.9V14.6L293.1.9h-4.5V23.2h4.9V9l10.8,14.2ZM330.7,5.4V.9H312.2V5.4H319V23.2h4.9V5.4Z"/><polygon class="cls-1" points="23.4 9.7 23.3 8.9 23.2 8.6 18.8 8.6 0 8.6 0 12.6 24 12.6 23.8 11.8 23.4 9.7"/><path class="cls-1" d="M49.5,20.4l-2-10.1L46.4,4.4a3.7,3.7,0,0,0-2.2-1.3,4.1,4.1,0,0,0-2.6.7L45,21.3h0a2.7,2.7,0,0,0,1,2.1,3.2,3.2,0,0,0,5-1.6C50.3,21.8,49.7,21,49.5,20.4Z"/><path class="cls-1" d="M43.4,19.6l-.8-3.9-2.3-12a3.7,3.7,0,0,0-2.2-1.3,4.3,4.3,0,0,0-2.7.7l3.4,17.5h0c.5,3,2,2.8,3,2.8H42a1.9,1.9,0,0,0,1.3-.7,2.5,2.5,0,0,0,.3-1.8Z"/><polygon class="cls-1" points="49.9 16.6 50.5 19.8 57.5 21.7 58.5 17.8 54 16.6 49.9 16.6"/><polygon class="cls-1" points="48.9 11.6 49.1 12.3 49.5 14.4 49.6 15.2 49.7 15.6 54.1 15.6 60.4 15.6 73 15.6 73 11.6 48.9 11.6"/><polygon class="cls-1" points="23 7.6 22.4 4.3 15.5 2.4 14.4 6.3 18.9 7.6 23 7.6"/><path class="cls-1" d="M34.2,3.4c-.5-3-2-2.8-3-2.8h-.3a1.9,1.9,0,0,0-1.3.7,2.5,2.5,0,0,0-.3,1.8l.3,1.4.8,3.9,2.3,12a3.7,3.7,0,0,0,2.2,1.3,4.3,4.3,0,0,0,2.7-.7L34.2,3.4Z"/><path class="cls-1" d="M28,2.8A2.7,2.7,0,0,0,26.9.7,3.1,3.1,0,0,0,24.8,0a3.4,3.4,0,0,0-2.2,1.1,1.9,1.9,0,0,0-.7,1.4h.4c.4,0,.8.6,1.1,1.2h0l.7,3.8V9.1l.3,1.6.5,2.5v.7l1.1,5.8A3.7,3.7,0,0,0,28.8,21a4.2,4.2,0,0,0,2.7-.7L28,2.8Z"/></g></g></svg>